<svg width="32" height="32" viewBox="0 0 32 32" fill="none" xmlns="http://www.w3.org/2000/svg">
<path d="M20.873 8.53902C19.529 6.88127 17.1607 5.26227 14.6517 5.26227C10.5515 5.26227 7.3795 8.68952 7.3795 12.257C7.3795 12.4053 7.38725 12.5518 7.3985 12.6978C7.364 12.6973 7.32975 12.6955 7.295 12.6955C2.881 12.6953 0.375 14.71 0.375 18.0355C0.375 20.3645 1.1875 22.8733 4.11975 24.0658C5.09525 26.3625 7.63375 28 10.6125 28C12.249 28 19.47 28 21.5217 28C27.7002 28 31.646 23.6885 31.646 18.3125C31.6457 13.0273 26.9077 8.68252 20.873 8.53902Z" fill="#E5F9FF"/>
<path d="M9.13026 4C8.81151 4 8.55426 4.25725 8.55426 4.576V11.9795C10.4953 12.1197 12.0238 13.7402 12.0238 15.7157C12.0238 16.768 11.5898 17.7183 10.8928 18.398C10.144 19.1275 9.71976 20.1297 9.71976 21.1742V22.551H10.3188V23.797H12.6593C13.6135 23.797 14.3873 24.5707 14.3873 25.525V26.56H13.7498V28H25.5905C25.9093 28 26.1665 27.7427 26.1665 27.424V8.752L21.4145 4H9.13026Z" fill="#F8F8F8"/>
<path d="M22.9438 24.0417C22.7503 23.9132 22.6538 23.6802 22.6998 23.4525C22.7805 23.0517 22.427 22.6982 22.0263 22.779C21.7985 22.825 21.5655 22.7285 21.437 22.535C21.2108 22.1945 20.7108 22.1945 20.4848 22.535C20.3563 22.7285 20.1233 22.825 19.8955 22.779C19.4948 22.6982 19.1413 23.0517 19.222 23.4525C19.268 23.6802 19.1715 23.9132 18.978 24.0417C18.6375 24.268 18.6375 24.768 18.978 24.9942C19.1715 25.1227 19.268 25.3557 19.222 25.5835C19.1413 25.9842 19.4948 26.3377 19.8955 26.257C20.1233 26.211 20.3563 26.3075 20.4848 26.501C20.711 26.8415 21.211 26.8415 21.437 26.501C21.5655 26.3075 21.7985 26.211 22.0263 26.257C22.427 26.3377 22.7805 25.9842 22.6998 25.5835C22.6538 25.3557 22.7503 25.1227 22.9438 24.9942C23.2843 24.768 23.2843 24.268 22.9438 24.0417Z" fill="#FADB61"/>
<path d="M20.9608 25.518C21.513 25.518 21.9608 25.0703 21.9608 24.518C21.9608 23.9657 21.513 23.518 20.9608 23.518C20.4085 23.518 19.9608 23.9657 19.9608 24.518C19.9608 25.0703 20.4085 25.518 20.9608 25.518Z" fill="#FADB61"/>
<path d="M13.7492 26.5595H2.80499V28H13.7492V26.5595Z" fill="#2CB0ED"/>
<path d="M10.319 22.55H6.33224V23.7975H10.319V22.55Z" fill="#C2D5EC"/>
<path d="M12.6598 23.7975H3.8945C2.94025 23.7975 2.1665 24.5713 2.1665 25.5255V26.5595H14.388V25.5255C14.3878 24.5713 13.6143 23.7975 12.6598 23.7975ZM8.073 11.9735C6.08425 12.079 4.4995 13.7828 4.53 15.774C4.546 16.811 4.98375 17.7443 5.67925 18.4123C6.46825 19.1703 6.9515 20.1905 6.9515 21.2845V22.55H9.72V21.1745C9.72 20.1288 10.143 19.1283 10.892 18.3988C11.5905 17.7183 12.0245 16.7675 12.0245 15.7153C12.0245 13.5783 10.2353 11.8588 8.073 11.9735Z" fill="#627D98"/>
<path d="M25.6665 4.0005L23.6753 4.00025L23.675 4H21.415L26.1675 8.752V27.425C26.1675 27.7425 25.91 28 25.59 28H27.765H29.2788V8.18975C29.2788 7.9035 29.165 7.629 28.9628 7.4265L25.6665 4.0005Z" fill="#E9EAEB"/>
<path d="M4.92501 23.7975H3.89501C2.94001 23.7975 2.16751 24.57 2.16751 25.525V26.56H2.80501V28H3.83501V26.56H3.19751V25.525C3.19751 24.57 3.97251 23.7975 4.92501 23.7975ZM8.66501 11.9875C8.47251 11.9675 8.27501 11.9625 8.07251 11.9725C6.08501 12.08 4.50001 13.7825 4.53001 15.775C4.54501 16.81 4.98501 17.745 5.68001 18.4125C6.46751 19.17 6.95251 20.19 6.95251 21.285V22.55H6.33251V23.7975H7.36251V22.55H7.98251V21.285C7.98251 20.19 7.50001 19.17 6.71001 18.4125C6.01501 17.745 5.57751 16.81 5.56251 15.775C5.53001 13.8475 6.76501 12.19 8.66501 11.9875Z" fill="#F8F8F8"/>
<path d="M8.095 11.9725C8 11.9775 7.9075 11.9875 7.815 12C9.6575 12.235 11.08 13.81 11.08 15.715C11.08 16.7675 10.6475 17.7175 9.9475 18.4C9.2 19.1275 8.7775 20.13 8.7775 21.175V22.55H9.375V23.7975H10.3188V22.55H9.71975L9.72025 21.175C9.72025 20.13 10.1428 19.1342 10.8903 18.4067C11.5903 17.7242 12.0238 16.7675 12.0238 15.715C12.0238 13.5775 10.2575 11.86 8.095 11.9725ZM12.68 23.7975H11.715C12.67 23.7975 13.445 24.57 13.445 25.525V26.56H12.805V28H13.7498V26.56H14.3873V25.525C14.3873 24.552 13.594 23.7975 12.68 23.7975ZM21.4145 8.184C21.4145 8.49775 21.6688 8.752 21.9825 8.752H26.1665L21.4145 4V8.184Z" fill="#324D67"/>
<path d="M31.75 28.25H0.25C0.112 28.25 0 28.138 0 28C0 27.862 0.112 27.75 0.25 27.75H31.75C31.888 27.75 32 27.862 32 28C32 28.138 31.888 28.25 31.75 28.25Z" fill="#3F4D81"/>
<path d="M13.7492 28.25H2.80499C2.66699 28.25 2.55499 28.138 2.55499 28V26.5595C2.55499 26.4215 2.66699 26.3095 2.80499 26.3095H13.7492C13.8872 26.3095 13.9992 26.4215 13.9992 26.5595V28C13.9992 28.138 13.8872 28.25 13.7492 28.25ZM3.05499 27.75H13.4992V26.8095H3.05499V27.75ZM10.319 24.0475H6.33224C6.19424 24.0475 6.08224 23.9355 6.08224 23.7975V22.55C6.08224 22.412 6.19424 22.3 6.33224 22.3H10.319C10.457 22.3 10.569 22.412 10.569 22.55V23.7975C10.569 23.9355 10.4572 24.0475 10.319 24.0475ZM6.58224 23.5475H10.069V22.8H6.58224V23.5475Z" fill="#3F4D81"/>
<path d="M14.3878 26.8095H2.1665C2.0285 26.8095 1.9165 26.6975 1.9165 26.5595V25.5255C1.9165 24.4348 2.80375 23.5475 3.8945 23.5475H12.66C13.7508 23.5475 14.638 24.4348 14.638 25.5255V26.5595C14.6378 26.6978 14.526 26.8095 14.3878 26.8095ZM2.4165 26.3095H14.138V25.5255C14.138 24.7105 13.475 24.0475 12.66 24.0475H3.8945C3.0795 24.0475 2.4165 24.7105 2.4165 25.5255V26.3095ZM9.72 22.8H6.9515C6.8135 22.8 6.7015 22.688 6.7015 22.55V21.2845C6.7015 20.2893 6.277 19.333 5.506 18.5925C4.732 17.8488 4.29675 16.8493 4.28 15.778C4.2475 13.6548 5.943 11.836 8.05975 11.724C9.17025 11.6653 10.2238 12.0525 11.0275 12.8148C11.8318 13.5775 12.2745 14.6078 12.2745 15.7158C12.2745 16.8028 11.8455 17.8195 11.0665 18.5783C10.3698 19.257 9.97 20.2035 9.97 21.175V22.55C9.97 22.688 9.85825 22.8 9.72 22.8ZM7.2015 22.3H9.47025V21.1748C9.47025 20.0693 9.925 18.9925 10.7178 18.22C11.3993 17.556 11.7748 16.6668 11.7748 15.7155C11.7748 14.7463 11.3873 13.8448 10.6835 13.1773C9.9805 12.5105 9.06 12.1715 8.08625 12.223C6.23475 12.3213 4.75175 13.9125 4.78 15.77C4.7945 16.707 5.17525 17.5813 5.8525 18.2318C6.72225 19.0675 7.2015 20.1515 7.2015 21.2843V22.3V22.3Z" fill="#324D67"/>
<path d="M10.3188 24.0475H9.37501C9.23701 24.0475 9.12501 23.9355 9.12501 23.7975V22.8H8.77751C8.63951 22.8 8.52751 22.688 8.52751 22.55V21.175C8.52751 20.068 8.98151 18.9912 9.77326 18.2207C10.4548 17.5562 10.83 16.6662 10.83 15.715C10.83 13.96 9.52026 12.4695 7.78326 12.248C7.65876 12.232 7.56526 12.1262 7.56476 12.0007C7.56426 11.8752 7.65701 11.7687 7.78151 11.752C7.88051 11.7387 7.97976 11.728 8.08176 11.7227C9.18501 11.6647 10.2328 12.05 11.029 12.8057C11.8315 13.5677 12.2738 14.6007 12.2738 15.7147C12.2738 16.8057 11.8445 17.8255 11.0648 18.5855C10.369 19.2627 9.97026 20.2062 9.97026 21.1747L9.97001 22.2997H10.319C10.457 22.2997 10.569 22.4117 10.569 22.5497V23.7972C10.5688 23.9355 10.4568 24.0475 10.3188 24.0475ZM9.62501 23.5475H10.0688V22.8H9.71976C9.68701 22.8 9.65476 22.7935 9.62501 22.7812V23.5475ZM9.02751 22.3H9.37501C9.40851 22.3 9.44051 22.3065 9.46976 22.3185L9.47001 21.175C9.47001 20.0725 9.92401 18.9982 10.7158 18.2277C11.398 17.5627 11.7735 16.6702 11.7735 15.715C11.7735 14.7395 11.3868 13.835 10.6848 13.1685C10.4055 12.9032 10.091 12.6905 9.75176 12.534C10.7155 13.269 11.3298 14.43 11.3298 15.715C11.3298 16.8025 10.9008 17.8195 10.1218 18.579C9.42601 19.256 9.02726 20.2022 9.02726 21.175V22.3H9.02751ZM13.7498 28.25H12.805C12.667 28.25 12.555 28.138 12.555 28V26.56C12.555 26.422 12.667 26.31 12.805 26.31H13.195V25.525C13.195 24.7102 12.531 24.0475 11.715 24.0475C11.577 24.0475 11.465 23.9355 11.465 23.7975C11.465 23.6595 11.577 23.5475 11.715 23.5475H12.68C13.7593 23.5475 14.6373 24.4345 14.6373 25.525V26.56C14.6373 26.698 14.5253 26.81 14.3873 26.81H13.9998V28C13.9998 28.138 13.8878 28.25 13.7498 28.25ZM13.055 27.75H13.4998V26.804C13.4823 26.808 13.4638 26.81 13.445 26.81H13.055V27.75V27.75ZM13.0955 24.1087C13.4653 24.4682 13.695 24.9702 13.695 25.5252V26.3162C13.7125 26.3122 13.731 26.3102 13.7498 26.3102H14.1373V25.5252C14.1373 24.8565 13.6973 24.2905 13.0955 24.1087ZM27.7658 28.25C27.6278 28.25 27.5158 28.138 27.5158 28V8.667C27.5158 8.4455 27.4295 8.23725 27.273 8.08075L23.4965 4.17425C23.4005 4.075 23.403 3.91675 23.5025 3.82075C23.6015 3.7245 23.76 3.72725 23.856 3.82675L27.6295 7.73025C27.8778 7.97825 28.0158 8.312 28.0158 8.667V28C28.0158 28.138 27.9038 28.25 27.7658 28.25Z" fill="#627D98"/>
<path d="M29.2787 28.25C29.1407 28.25 29.0287 28.138 29.0287 28V8.18975C29.0287 7.96825 28.9425 7.76 28.7857 7.60325L25.4862 4.17375C25.3905 4.07425 25.3935 3.916 25.493 3.82025C25.5925 3.72475 25.751 3.72775 25.8465 3.827L29.1427 7.25325C29.3905 7.501 29.5287 7.83475 29.5287 8.18975V28C29.5287 28.138 29.4167 28.25 29.2787 28.25Z" fill="#3F4D81"/>
<path d="M25.5903 28.25H13.7498C13.6118 28.25 13.4998 28.138 13.4998 28V26.56C13.4998 26.422 13.6118 26.31 13.7498 26.31H14.1373V25.525C14.1373 24.71 13.4743 24.047 12.6593 24.047H10.3188C10.1808 24.047 10.0688 23.935 10.0688 23.797V22.801H9.71976C9.58176 22.801 9.46976 22.689 9.46976 22.551V21.1745C9.46976 20.0695 9.92476 18.9922 10.7185 18.219C11.399 17.5552 11.7738 16.6662 11.7738 15.7157C11.7738 13.8915 10.3518 12.3598 8.53626 12.2288C8.40551 12.2193 8.30426 12.1105 8.30426 11.9792V4.576C8.30426 4.1205 8.67476 3.75 9.13026 3.75H21.4145C21.4808 3.75 21.5445 3.77625 21.5913 3.82325L26.3433 8.57525C26.3903 8.62225 26.4165 8.68575 26.4165 8.752V27.424C26.4165 27.8795 26.0458 28.25 25.5903 28.25ZM13.9998 27.75H25.5903C25.77 27.75 25.9163 27.6037 25.9163 27.424V8.8555L21.311 4.25H9.13026C8.95051 4.25 8.80426 4.39625 8.80426 4.576V11.7537C10.7678 12.012 12.2738 13.709 12.2738 15.7157C12.2738 16.8022 11.8453 17.8182 11.0675 18.577C10.3698 19.2567 9.96976 20.2032 9.96976 21.1745V22.301H10.3188C10.4568 22.301 10.5688 22.413 10.5688 22.551V23.547H12.6593C13.75 23.547 14.6373 24.4342 14.6373 25.525V26.56C14.6373 26.698 14.5253 26.81 14.3873 26.81H13.9998V27.75Z" fill="#324D67"/>
<path d="M26.1665 9.00203H21.9825C21.5315 9.00203 21.1645 8.63503 21.1645 8.18403V4.00003C21.1645 3.89903 21.2255 3.80778 21.3188 3.76903C21.4125 3.73003 21.5198 3.75153 21.5913 3.82328L26.3433 8.57528C26.4148 8.64678 26.4363 8.75428 26.3975 8.84778C26.3588 8.94103 26.2675 9.00203 26.1665 9.00203ZM21.6645 4.60353V8.18403C21.6645 8.35928 21.8073 8.50203 21.9825 8.50203H25.563L21.6645 4.60353ZM19.697 9.00203H11.996C11.858 9.00203 11.746 8.89003 11.746 8.75203C11.746 8.61403 11.858 8.50203 11.996 8.50203H19.697C19.835 8.50203 19.947 8.61403 19.947 8.75203C19.947 8.89003 19.835 9.00203 19.697 9.00203ZM16.0945 7.39403H11.996C11.858 7.39403 11.746 7.28203 11.746 7.14403C11.746 7.00603 11.858 6.89403 11.996 6.89403H16.0948C16.2328 6.89403 16.3448 7.00603 16.3448 7.14403C16.3448 7.28203 16.2328 7.39403 16.0945 7.39403ZM23.199 14.6568H11.996C11.858 14.6568 11.746 14.5448 11.746 14.4068C11.746 14.2688 11.858 14.1568 11.996 14.1568H23.199C23.337 14.1568 23.449 14.2688 23.449 14.4068C23.449 14.5448 23.3373 14.6568 23.199 14.6568ZM23.199 12.892H11.996C11.858 12.892 11.746 12.78 11.746 12.642C11.746 12.504 11.858 12.392 11.996 12.392H23.199C23.337 12.392 23.449 12.504 23.449 12.642C23.449 12.78 23.3373 12.892 23.199 12.892ZM23.199 18.1865H11.996C11.858 18.1865 11.746 18.0745 11.746 17.9365C11.746 17.7985 11.858 17.6865 11.996 17.6865H23.199C23.337 17.6865 23.449 17.7985 23.449 17.9365C23.449 18.0745 23.3373 18.1865 23.199 18.1865ZM23.199 16.4218H11.996C11.858 16.4218 11.746 16.3098 11.746 16.1718C11.746 16.0338 11.858 15.9218 11.996 15.9218H23.199C23.337 15.9218 23.449 16.0338 23.449 16.1718C23.449 16.3098 23.3373 16.4218 23.199 16.4218ZM16.368 21.716H11.996C11.858 21.716 11.746 21.604 11.746 21.466C11.746 21.328 11.858 21.216 11.996 21.216H16.368C16.506 21.216 16.618 21.328 16.618 21.466C16.618 21.604 16.506 21.716 16.368 21.716ZM23.199 19.9513H11.996C11.858 19.9513 11.746 19.8393 11.746 19.7013C11.746 19.5633 11.858 19.4513 11.996 19.4513H23.199C23.337 19.4513 23.449 19.5633 23.449 19.7013C23.449 19.8393 23.3373 19.9513 23.199 19.9513ZM20.9608 27.0063C20.6848 27.0063 20.429 26.869 20.2763 26.6393C20.2038 26.53 20.0735 26.4755 19.9448 26.502C19.6745 26.556 19.3965 26.4728 19.2013 26.2775C19.0063 26.0825 18.9223 25.8045 18.9768 25.534C19.0028 25.4053 18.9488 25.275 18.8395 25.2023C18.6098 25.0498 18.4725 24.794 18.4725 24.518C18.4725 24.242 18.6098 23.9863 18.8395 23.8335C18.949 23.7608 19.0028 23.6308 18.9768 23.502C18.9223 23.2315 19.0063 22.9535 19.2013 22.7585C19.3963 22.5635 19.674 22.48 19.9448 22.534C20.074 22.5603 20.2038 22.506 20.2763 22.3968C20.429 22.167 20.6848 22.0295 20.9608 22.0295C21.2368 22.0295 21.4925 22.1668 21.6453 22.3968C21.718 22.5063 21.8485 22.5605 21.9768 22.534C22.248 22.4798 22.5253 22.5635 22.7203 22.7585C22.9153 22.9535 22.9993 23.2315 22.9445 23.502C22.9185 23.6308 22.9725 23.761 23.082 23.8335C23.3118 23.986 23.449 24.242 23.449 24.518C23.449 24.794 23.3118 25.0498 23.082 25.2023C22.9725 25.275 22.9188 25.4053 22.9448 25.534C22.9993 25.8043 22.9155 26.0823 22.7205 26.2773C22.5255 26.4725 22.2478 26.5563 21.977 26.5018C21.8483 26.475 21.718 26.5295 21.6455 26.639C21.4925 26.8693 21.2368 27.0063 20.9608 27.0063ZM20.01 25.9953C20.2818 25.9953 20.5383 26.1298 20.6928 26.3625C20.814 26.545 21.1073 26.545 21.2288 26.3625C21.4143 26.083 21.7458 25.9458 22.0758 26.0115C22.1825 26.033 22.2893 26.001 22.367 25.9235C22.4445 25.846 22.4765 25.74 22.4548 25.6328C22.3885 25.3038 22.5263 24.9713 22.8055 24.7855C22.897 24.7248 22.9493 24.6273 22.9493 24.5178C22.9493 24.4083 22.8968 24.3108 22.8055 24.25C22.526 24.0645 22.3883 23.732 22.4545 23.403C22.4763 23.2955 22.4443 23.1895 22.3668 23.1118C22.2893 23.034 22.1825 23.002 22.0758 23.024C21.747 23.09 21.4143 22.9525 21.2288 22.6733C21.1075 22.4908 20.8143 22.4908 20.6928 22.6733C20.5073 22.9528 20.1755 23.09 19.8458 23.024C19.7385 23.002 19.6323 23.0343 19.5545 23.1118C19.4768 23.1893 19.445 23.2955 19.4668 23.403C19.533 23.7318 19.3953 24.0645 19.116 24.25C19.0248 24.3108 18.9723 24.4083 18.9723 24.518C18.9723 24.6278 19.0245 24.7253 19.116 24.7858C19.3955 24.9715 19.533 25.304 19.4668 25.6328C19.445 25.7403 19.477 25.8463 19.5545 25.9238C19.632 26.001 19.7378 26.0333 19.8458 26.0115C19.9008 26.0008 19.9558 25.9953 20.01 25.9953Z" fill="#627D98"/>
<path d="M20.9608 25.768C20.2715 25.768 19.7108 25.2073 19.7108 24.518C19.7108 23.8288 20.2715 23.268 20.9608 23.268C21.65 23.268 22.2108 23.8288 22.2108 24.518C22.2108 25.2073 21.65 25.768 20.9608 25.768ZM20.9608 23.768C20.5473 23.768 20.2108 24.1045 20.2108 24.518C20.2108 24.9315 20.5473 25.268 20.9608 25.268C21.3743 25.268 21.7108 24.9315 21.7108 24.518C21.7108 24.1045 21.3745 23.768 20.9608 23.768Z" fill="#2CB0ED"/>
<path d="M29.2787 28.25C29.1407 28.25 29.0287 28.138 29.0287 28V8.18975C29.0287 7.96825 28.9425 7.76 28.7857 7.60325L25.4862 4.17375C25.3905 4.07425 25.3935 3.916 25.493 3.82025C25.5925 3.72475 25.751 3.72775 25.8465 3.827L29.1427 7.25325C29.3905 7.501 29.5287 7.83475 29.5287 8.18975V28C29.5287 28.138 29.4167 28.25 29.2787 28.25Z" fill="#627D98"/>
</svg>
