<svg width="71" height="14" viewBox="0 0 71 14" fill="none" xmlns="http://www.w3.org/2000/svg">
<path d="M22.3529 0.508911C23.6377 0.508911 26.1416 0.933071 26.1416 2.48088C26.1416 3.1134 25.7036 3.66406 25.0539 3.66406C24.3312 3.66406 23.8348 3.04642 22.3602 3.04642C20.1775 3.04642 19.046 4.89933 19.046 7.04989C19.046 9.14836 20.1921 10.9492 22.3602 10.9492C23.8421 10.9492 24.4407 10.205 25.1634 10.205C25.9591 10.205 26.3241 11.0013 26.3241 11.4031C26.3241 13.0997 23.6669 13.4867 22.3602 13.4867C18.7832 13.4867 16.3012 10.6441 16.3012 6.9978C16.2939 3.3292 18.7613 0.508911 22.3529 0.508911Z" fill="#007BC3"/>
<path d="M31.0383 7.38408L27.7095 2.69602C27.5489 2.46533 27.4613 2.18256 27.4613 1.89979C27.4613 1.19285 27.9869 0.612427 28.7315 0.612427C29.1914 0.612427 29.5929 0.805905 29.8265 1.14077L32.3669 4.82425L34.9 1.14077C35.1263 0.805905 35.5351 0.612427 35.995 0.612427C36.7396 0.612427 37.2652 1.19285 37.2652 1.89979C37.2652 2.18256 37.1776 2.46533 37.017 2.69602L33.6882 7.38408V12.0945C33.6882 12.7493 33.3013 13.3818 32.3669 13.3818C31.4325 13.3818 31.0456 12.7493 31.0456 12.0945V7.38408H31.0383Z" fill="#007BC3"/>
<path d="M38.7582 2.07576C38.7582 1.26465 39.3203 0.713989 40.116 0.713989H43.0433C46.9926 0.713989 49.2483 3.25894 49.2483 7.17311C49.2483 10.8715 46.8539 13.275 43.2258 13.275H40.1598C39.5758 13.275 38.7655 12.9551 38.7655 11.9505V2.07576H38.7582ZM41.4008 10.8417H43.182C45.4523 10.8417 46.4962 9.1674 46.4962 7.05405C46.4962 4.79931 45.4377 3.15476 43.0068 3.15476H41.4008V10.8417Z" fill="#007BC3"/>
<path d="M53.598 1.97291C53.8973 1.1618 54.5835 0.506958 55.4815 0.506958C56.4159 0.506958 57.0656 1.12459 57.3649 1.97291L60.8178 11.5649C60.92 11.8476 60.9565 12.0932 60.9565 12.2197C60.9565 12.9043 60.3944 13.3806 59.7374 13.3806C59.0001 13.3806 58.6278 12.9936 58.4526 12.4653L57.927 10.8058H53.0286L52.503 12.4504C52.3278 13.001 51.9556 13.388 51.2329 13.388C50.5248 13.388 49.9261 12.8597 49.9261 12.1527C49.9261 11.87 50.0137 11.6616 50.0502 11.5723L53.598 1.97291ZM53.7879 8.3725H57.1386L55.5033 3.26027H55.4669L53.7879 8.3725Z" fill="#007BC3"/>
<path d="M70.0875 2.27019C70.0875 2.96224 69.6276 3.57244 68.9049 3.57244C68.1822 3.57244 67.6201 3.0441 66.5616 3.0441C65.8024 3.0441 65.1162 3.44593 65.1162 4.19007C65.1162 6.00577 71 4.84491 71 9.3916C71 11.9142 68.9195 13.4844 66.4886 13.4844C65.1308 13.4844 62.2035 13.1644 62.2035 11.505C62.2035 10.8203 62.6634 10.2548 63.3861 10.2548C64.2183 10.2548 65.2038 10.9394 66.3426 10.9394C67.5033 10.9394 68.1384 10.2846 68.1384 9.42137C68.1384 7.33778 62.2546 8.59537 62.2546 4.50261C62.2546 2.03207 64.284 0.499146 66.62 0.499146C67.6201 0.506587 70.0875 0.878654 70.0875 2.27019Z" fill="#007BC3"/>
<path d="M12.5342 7.81555H7.71623C7.48263 7.81555 7.28552 8.00903 7.28552 8.24715V13.0692C7.28552 13.3073 7.47533 13.5008 7.71623 13.5008H12.5342C12.7678 13.5008 12.9649 13.3073 12.9649 13.0692V8.24715C12.9649 8.00159 12.7751 7.81555 12.5342 7.81555Z" fill="#007BC3"/>
<path d="M3.21236 6.94413C4.9863 6.94413 6.42437 5.50487 6.42437 3.72945C6.42437 1.95403 4.9863 0.514771 3.21236 0.514771C1.43842 0.514771 0.000366211 1.95403 0.000366211 3.72945C0.000366211 5.50487 1.43842 6.94413 3.21236 6.94413Z" fill="#007BC3"/>
<path d="M12.7538 1.95821L10.3448 0.566675C10.2134 0.492261 10.0455 0.492261 9.91406 0.566675L7.50507 1.95821C7.37367 2.03263 7.29337 2.17401 7.29337 2.33028V5.11336C7.29337 5.26963 7.37367 5.41102 7.50507 5.48543L9.91406 6.87697C10.0455 6.95138 10.2134 6.95138 10.3448 6.87697L12.7538 5.48543C12.8852 5.41102 12.9655 5.26963 12.9655 5.11336V2.33028C12.9655 2.17401 12.8852 2.03263 12.7538 1.95821Z" fill="#30B1E0"/>
<path d="M6.3665 12.8445L3.6071 8.0374C3.4392 7.75462 3.0304 7.75462 2.8625 8.0374L0.0592937 12.8445C-0.108606 13.1273 0.103095 13.4845 0.431595 13.4845H6.0015C6.33 13.4919 6.5344 13.1347 6.3665 12.8445Z" fill="#003A84"/>
</svg>
