<svg width="32" height="32" viewBox="0 0 32 32" fill="none" xmlns="http://www.w3.org/2000/svg">
<path d="M20 31H2C1.448 31 1 30.553 1 30V5C1 4.447 1.448 4 2 4H20C20.553 4 21 4.447 21 5V30C21 30.553 20.553 31 20 31ZM3 29H19V6H3V29Z" fill="#627D98"/>
<path d="M30 31H20C19.447 31 19 30.553 19 30V16C19 15.447 19.447 15 20 15H30C30.553 15 31 15.447 31 16V30C31 30.553 30.553 31 30 31ZM21 29H29V17H21V29ZM15 31H7C6.448 31 6 30.553 6 30V23C6 22.447 6.448 22 7 22H15C15.552 22 16 22.447 16 23V30C16 30.553 15.552 31 15 31ZM8 29H14V24H8V29ZM6 6C5.448 6 5 5.553 5 5V2C5 1.447 5.448 1 6 1C6.552 1 7 1.447 7 2V5C7 5.553 6.552 6 6 6ZM10 6C9.448 6 9 5.553 9 5V2C9 1.447 9.448 1 10 1C10.552 1 11 1.447 11 2V5C11 5.553 10.552 6 10 6Z" fill="#627D98"/>
<path d="M12 10H10C9.448 10 9 9.553 9 9C9 8.447 9.448 8 10 8H12C12.552 8 13 8.447 13 9C13 9.553 12.552 10 12 10ZM17 10H15C14.448 10 14 9.553 14 9C14 8.447 14.448 8 15 8H17C17.553 8 18 8.447 18 9C18 9.553 17.553 10 17 10ZM7 10H5C4.448 10 4 9.553 4 9C4 8.447 4.448 8 5 8H7C7.552 8 8 8.447 8 9C8 9.553 7.552 10 7 10ZM12 15H10C9.448 15 9 14.553 9 14C9 13.447 9.448 13 10 13H12C12.552 13 13 13.447 13 14C13 14.553 12.552 15 12 15ZM17 15H15C14.448 15 14 14.553 14 14C14 13.447 14.448 13 15 13H17C17.553 13 18 13.447 18 14C18 14.553 17.553 15 17 15ZM7 15H5C4.448 15 4 14.553 4 14C4 13.447 4.448 13 5 13H7C7.552 13 8 13.447 8 14C8 14.553 7.552 15 7 15ZM12 20H10C9.448 20 9 19.553 9 19C9 18.447 9.448 18 10 18H12C12.552 18 13 18.447 13 19C13 19.553 12.552 20 12 20ZM17 20H15C14.448 20 14 19.553 14 19C14 18.447 14.448 18 15 18H17C17.553 18 18 18.447 18 19C18 19.553 17.553 20 17 20ZM7 20H5C4.448 20 4 19.553 4 19C4 18.447 4.448 18 5 18H7C7.552 18 8 18.447 8 19C8 19.553 7.552 20 7 20Z" fill="#2CB0ED"/>
<path d="M27 21H23C22.447 21 22 20.553 22 20C22 19.447 22.447 19 23 19H27C27.553 19 28 19.447 28 20C28 20.553 27.553 21 27 21ZM27 25H23C22.447 25 22 24.553 22 24C22 23.447 22.447 23 23 23H27C27.553 23 28 23.447 28 24C28 24.553 27.553 25 27 25Z" fill="#FADB61"/>
</svg>
