<svg width="32" height="32" viewBox="0 0 32 32" fill="none" xmlns="http://www.w3.org/2000/svg">
<g clip-path="url(#clip0_7_45)">
<path d="M22.78 5.48498C20.15 4.50498 17.215 5.84998 16.24 8.47998C15.26 11.11 16.605 14.045 19.235 15.025C19.815 15.24 20.415 15.34 21.005 15.34C23.07 15.34 25.02 14.075 25.78 12.025C25.995 11.445 26.1 10.845 26.1 10.26C26.1 8.19498 24.83 6.24498 22.78 5.48498ZM24.87 11.695C24.08 13.825 21.705 14.91 19.575 14.12C17.44 13.33 16.355 10.955 17.145 8.81998C17.76 7.15998 19.34 6.13998 21.015 6.13998C21.49 6.13998 21.975 6.21998 22.445 6.39498C24.57 7.18498 25.66 9.55998 24.87 11.695Z" fill="#2A2F64"/>
<path d="M31.03 11.93L29.365 10.925C29.435 10.135 29.385 9.34002 29.22 8.56002L30.745 7.35502C30.925 7.21502 30.985 6.96502 30.88 6.76502L29.83 4.60502C29.73 4.40502 29.5 4.30002 29.275 4.35002L27.395 4.81502C26.875 4.20502 26.285 3.68002 25.62 3.24502L25.85 1.32002C25.875 1.09002 25.74 0.880024 25.525 0.800024L23.255 0.0250241C23.04 -0.0499759 22.8 0.0350241 22.685 0.235024L21.68 1.89502C20.89 1.82502 20.095 1.88002 19.315 2.04002L18.11 0.515024C17.97 0.335024 17.72 0.275024 17.52 0.380024L15.365 1.43002C15.155 1.53002 15.05 1.76002 15.105 1.98502L15.57 3.86502C14.965 4.38502 14.435 4.98002 14 5.64502L12.075 5.41502C11.84 5.38502 11.635 5.52002 11.56 5.73502L10.78 8.00502C10.705 8.22502 10.795 8.46002 10.99 8.57502L12.65 9.58002C12.585 10.37 12.635 11.165 12.795 11.945L11.27 13.15C11.09 13.29 11.035 13.54 11.135 13.74L12.185 15.9C12.285 16.105 12.515 16.21 12.74 16.155L14.625 15.69C15.14 16.3 15.735 16.825 16.4 17.26L16.17 19.185C16.14 19.415 16.275 19.625 16.495 19.705L18.76 20.48C18.815 20.5 18.865 20.51 18.92 20.51C19.085 20.51 19.245 20.425 19.33 20.27L20.335 18.61C21.13 18.68 21.92 18.625 22.7 18.465L23.905 19.99C24.045 20.17 24.295 20.23 24.5 20.125L26.655 19.075C26.86 18.975 26.965 18.745 26.91 18.52L26.45 16.64C27.055 16.12 27.58 15.525 28.015 14.86L29.94 15.09C30.17 15.115 30.38 14.985 30.46 14.77L31.235 12.5C31.31 12.285 31.225 12.045 31.03 11.93ZM29.67 14.085L27.825 13.865C27.635 13.845 27.45 13.935 27.355 14.1C26.895 14.86 26.305 15.525 25.6 16.085C25.455 16.2 25.385 16.395 25.43 16.58L25.875 18.385L24.42 19.095L23.27 17.635C23.155 17.49 22.96 17.42 22.775 17.465C21.905 17.685 21.02 17.735 20.13 17.63C19.945 17.61 19.755 17.7 19.66 17.865L18.7 19.45L17.175 18.925L17.395 17.08C17.415 16.89 17.325 16.705 17.16 16.61C16.4 16.15 15.735 15.56 15.18 14.855C15.06 14.705 14.865 14.64 14.68 14.685L12.88 15.125L12.165 13.675L13.625 12.525C13.775 12.41 13.84 12.215 13.795 12.03C13.58 11.16 13.525 10.27 13.63 9.38502C13.655 9.19502 13.56 9.01002 13.395 8.91502L11.81 7.95502L12.34 6.43002L14.18 6.65002C14.37 6.67002 14.555 6.58002 14.655 6.41502C15.11 5.65502 15.7 4.99002 16.405 4.43002C16.555 4.31502 16.625 4.12002 16.575 3.93502L16.135 2.13002L17.585 1.42002L18.735 2.88002C18.85 3.02502 19.05 3.09502 19.235 3.05002C20.105 2.83502 20.99 2.78002 21.875 2.88502C22.065 2.90502 22.25 2.81502 22.345 2.65002L23.305 1.06502L24.83 1.59002L24.615 3.43502C24.59 3.62502 24.685 3.81002 24.845 3.90502C25.605 4.36502 26.275 4.95502 26.83 5.66002C26.945 5.81002 27.14 5.87502 27.325 5.83002L29.13 5.39002L29.84 6.84002L28.385 7.99002C28.235 8.10502 28.165 8.30002 28.215 8.48502C28.43 9.36002 28.48 10.245 28.375 11.13C28.355 11.32 28.445 11.505 28.61 11.6L30.195 12.56L29.67 14.085Z" fill="#2A2F64"/>
<path d="M28.605 11.5951C28.44 11.5001 28.355 11.3151 28.37 11.1251C28.475 10.2401 28.425 9.35506 28.21 8.48006C28.16 8.29506 28.23 8.10006 28.38 7.98506L29.835 6.83506L29.125 5.38506L27.32 5.82506C27.135 5.87006 26.94 5.80506 26.825 5.65506C26.27 4.95006 25.605 4.36006 24.84 3.90006C24.68 3.80506 24.59 3.62006 24.61 3.43006L24.825 1.58506L23.3 1.06006L22.34 2.64506C22.245 2.81006 22.06 2.89506 21.87 2.88006C20.985 2.77506 20.1 2.83006 19.23 3.04506C19.045 3.09006 18.845 3.02006 18.73 2.87506L17.58 1.41506L16.13 2.12506L16.57 3.93006C16.62 4.11506 16.55 4.31006 16.4 4.42506C15.695 4.98506 15.105 5.64506 14.65 6.41006C14.55 6.57506 14.365 6.66006 14.175 6.64506L12.335 6.42506L11.805 7.95006L13.39 8.91006C13.555 9.00506 13.645 9.19006 13.625 9.38006C13.52 10.2651 13.575 11.1551 13.79 12.0251C13.835 12.2101 13.77 12.4051 13.62 12.5201L12.16 13.6701L12.875 15.1201L14.675 14.6801C14.86 14.6351 15.055 14.7001 15.175 14.8501C15.73 15.5551 16.39 16.1451 17.155 16.6051C17.32 16.7001 17.405 16.8851 17.39 17.0751L17.17 18.9201L18.695 19.4451L19.655 17.8601C19.75 17.6951 19.94 17.6101 20.125 17.6251C21.01 17.7301 21.9 17.6801 22.77 17.4601C22.955 17.4151 23.15 17.4851 23.265 17.6301L24.415 19.0901L25.87 18.3801L25.425 16.5751C25.38 16.3901 25.45 16.1951 25.595 16.0801C26.3 15.5201 26.89 14.8601 27.35 14.0951C27.445 13.9301 27.63 13.8451 27.82 13.8601L29.665 14.0801L30.19 12.5551L28.605 11.5951ZM25.78 12.0251C25.02 14.0751 23.07 15.3401 21.005 15.3401C20.415 15.3401 19.815 15.2401 19.235 15.0251C16.6 14.0451 15.26 11.1051 16.24 8.48006C17.215 5.84506 20.155 4.50506 22.78 5.48506C24.83 6.24506 26.1 8.19506 26.1 10.2601C26.1 10.8501 25.995 11.4451 25.78 12.0251Z" fill="#F16E61"/>
<path d="M28.605 11.5951C28.44 11.5001 28.355 11.3151 28.37 11.1251C28.475 10.2401 28.425 9.35506 28.21 8.48006C28.16 8.29506 28.23 8.10006 28.38 7.98506L29.835 6.83506L29.125 5.38506L27.32 5.82506C27.135 5.87006 26.94 5.80506 26.825 5.65506C26.27 4.95006 25.605 4.36006 24.84 3.90006C24.68 3.80506 24.59 3.62006 24.61 3.43006L24.825 1.58506L23.3 1.06006L22.34 2.64506C22.245 2.81006 22.06 2.89506 21.87 2.88006C20.985 2.77506 20.1 2.83006 19.23 3.04506C19.045 3.09006 18.845 3.02006 18.73 2.87506L17.58 1.41506L16.13 2.12506L16.57 3.93006C16.62 4.11506 16.55 4.31006 16.4 4.42506C15.695 4.98506 15.105 5.64506 14.65 6.41006C14.55 6.57506 14.365 6.66006 14.175 6.64506L12.335 6.42506L11.805 7.95006L13.39 8.91006C13.555 9.00506 13.645 9.19006 13.625 9.38006C13.52 10.2651 13.575 11.1551 13.79 12.0251C13.835 12.2101 13.77 12.4051 13.62 12.5201L12.16 13.6701L12.875 15.1201L14.675 14.6801C14.86 14.6351 15.055 14.7001 15.175 14.8501C15.73 15.5551 16.39 16.1451 17.155 16.6051C17.32 16.7001 17.405 16.8851 17.39 17.0751L17.17 18.9201L18.695 19.4451L19.655 17.8601C19.75 17.6951 19.94 17.6101 20.125 17.6251C21.01 17.7301 21.9 17.6801 22.77 17.4601C22.955 17.4151 23.15 17.4851 23.265 17.6301L24.415 19.0901L25.87 18.3801L25.425 16.5751C25.38 16.3901 25.45 16.1951 25.595 16.0801C26.3 15.5201 26.89 14.8601 27.35 14.0951C27.445 13.9301 27.63 13.8451 27.82 13.8601L29.665 14.0801L30.19 12.5551L28.605 11.5951ZM29.005 13.0251L27.94 12.9001C27.875 12.8951 27.83 12.8901 27.775 12.8901C27.26 12.8901 26.78 13.1651 26.525 13.6101C26.13 14.2551 25.62 14.8301 25 15.3201C24.56 15.6751 24.36 16.2501 24.485 16.8001L24.745 17.8501L24.695 17.8751L24.03 17.0251C23.75 16.6701 23.33 16.4701 22.885 16.4701C22.775 16.4701 22.66 16.4851 22.55 16.5101C22.04 16.6401 21.525 16.7051 21.015 16.7051C20.765 16.7051 20.5 16.6901 20.25 16.6551C20.18 16.6501 20.135 16.6451 20.08 16.6451C19.565 16.6451 19.085 16.9201 18.83 17.3651L18.275 18.2701L18.23 18.2501L18.355 17.1901C18.415 16.6101 18.135 16.0551 17.65 15.7701C17 15.3751 16.425 14.8651 15.94 14.2451C15.655 13.8901 15.24 13.6901 14.795 13.6901C14.68 13.6901 14.565 13.7051 14.455 13.7301L13.41 13.9851L13.385 13.9401L14.23 13.2751C14.67 12.9351 14.875 12.3501 14.745 11.7951C14.555 11.0251 14.505 10.2551 14.6 9.49006C14.67 8.92506 14.395 8.36006 13.895 8.07006L12.99 7.52006L13.005 7.47006L14.065 7.59506C14.135 7.60006 14.18 7.60506 14.235 7.60506C14.745 7.60506 15.215 7.34506 15.48 6.90506C15.88 6.24506 16.39 5.66506 17.005 5.17506C17.455 4.82506 17.66 4.23506 17.51 3.67006L17.265 2.64006L17.31 2.62006L17.975 3.46506C18.25 3.81506 18.68 4.02006 19.125 4.02006C19.235 4.02006 19.35 4.00506 19.46 3.98006C19.98 3.85006 20.5 3.78506 21.005 3.78506C21.255 3.78506 21.51 3.80006 21.755 3.83506C21.825 3.84006 21.87 3.84506 21.925 3.84506C22.44 3.84506 22.92 3.57006 23.175 3.13006L23.73 2.22006L23.78 2.24006L23.655 3.30506C23.585 3.86506 23.855 4.42006 24.345 4.71506C25.01 5.11506 25.59 5.63006 26.07 6.24006C26.34 6.59006 26.76 6.79506 27.21 6.79506C27.325 6.79506 27.44 6.78006 27.55 6.75506L28.6 6.50006L28.625 6.54506L27.78 7.21006C27.33 7.56006 27.125 8.15006 27.275 8.71506C27.455 9.45506 27.505 10.2301 27.405 10.9951C27.345 11.5751 27.625 12.1301 28.11 12.4151L29.02 12.9701L29.005 13.0251Z" fill="#E25E5A"/>
<path d="M8.74498 19.8C6.73998 19.8 5.10999 21.43 5.10999 23.435C5.10999 25.44 6.73998 27.07 8.74498 27.07C10.75 27.07 12.38 25.44 12.38 23.435C12.38 21.43 10.75 19.8 8.74498 19.8ZM8.74498 26.105C7.27498 26.105 6.07999 24.9051 6.07999 23.4401C6.07999 21.9701 7.27998 20.775 8.74498 20.775C10.215 20.775 11.41 21.975 11.41 23.4401C11.41 24.9051 10.21 26.105 8.74498 26.105Z" fill="#2A2F64"/>
<path d="M16.365 22.0551L15 21.7601C14.855 21.2101 14.64 20.6951 14.355 20.2051L15.11 19.0251C15.235 18.8301 15.205 18.5801 15.045 18.4201L13.76 17.1351C13.6 16.9751 13.35 16.9451 13.155 17.0701L11.975 17.8251C11.485 17.5401 10.965 17.3251 10.42 17.1801L10.125 15.8151C10.075 15.5901 9.88498 15.4301 9.64999 15.4301H7.83499C7.60499 15.4301 7.40999 15.5901 7.35999 15.8151L7.06499 17.1801C6.51499 17.3251 5.99999 17.5401 5.50999 17.8251L4.32999 17.0701C4.13499 16.9451 3.88499 16.9751 3.72499 17.1351L2.43999 18.4201C2.27999 18.5801 2.24999 18.8301 2.37499 19.0251L3.12999 20.2051C2.84499 20.6951 2.62999 21.2151 2.48499 21.7601L1.11999 22.0551C0.894985 22.1051 0.734985 22.2951 0.734985 22.5251V24.3451C0.734985 24.5801 0.894985 24.7701 1.11999 24.8201L2.48499 25.1151C2.62999 25.6651 2.84499 26.1801 3.12999 26.6701L2.37499 27.8501C2.24999 28.0451 2.27999 28.2951 2.43999 28.4551L3.72499 29.7401C3.88499 29.9001 4.13499 29.9301 4.32999 29.8051L5.50999 29.0501C5.99999 29.3351 6.51999 29.5501 7.06499 29.6951L7.35999 31.0601C7.40999 31.2851 7.60499 31.4451 7.83499 31.4451H9.64999C9.88498 31.4451 10.075 31.2851 10.125 31.0601L10.42 29.6951C10.97 29.5501 11.485 29.3351 11.975 29.0501L13.155 29.8051C13.35 29.9301 13.6 29.9001 13.76 29.7401L15.045 28.4551C15.205 28.2951 15.235 28.0451 15.11 27.8501L14.355 26.6701C14.64 26.1801 14.855 25.6601 15 25.1151L16.365 24.8201C16.59 24.7701 16.75 24.5801 16.75 24.3451V22.5251C16.75 22.3001 16.59 22.1051 16.365 22.0551ZM15.78 23.9551L14.5 24.2351C14.31 24.2751 14.165 24.4201 14.125 24.6101C13.985 25.2551 13.73 25.8651 13.375 26.4251C13.275 26.5851 13.275 26.7901 13.375 26.9501L14.09 28.0501L13.36 28.7851L12.255 28.0701C12.095 27.9701 11.89 27.9701 11.73 28.0701C11.17 28.4301 10.56 28.6801 9.91499 28.8201C9.72499 28.8601 9.57999 29.0051 9.53999 29.1951L9.26499 30.4751H8.22499L7.94999 29.1951C7.90999 29.0051 7.76499 28.8601 7.57499 28.8201C6.92999 28.6801 6.32499 28.4251 5.75999 28.0701C5.59999 27.9701 5.39499 27.9701 5.23499 28.0701L4.13499 28.7851L3.39999 28.0451L4.11498 26.9451C4.21498 26.7851 4.21498 26.5801 4.11498 26.4201C3.75498 25.8601 3.49999 25.2501 3.35999 24.6051C3.31999 24.4151 3.17499 24.2701 2.98499 24.2301L1.70499 23.9551V22.9151L2.98499 22.6401C3.17499 22.6001 3.31999 22.4551 3.35999 22.2651C3.49999 21.6201 3.75499 21.0101 4.10999 20.4501C4.20999 20.2901 4.20999 20.0851 4.10999 19.9251L3.39999 18.8251L4.13499 18.0951L5.23499 18.8101C5.39499 18.9101 5.59999 18.9101 5.75999 18.8101C6.31999 18.4501 6.92999 18.1951 7.57499 18.0601C7.76499 18.0201 7.90999 17.8751 7.94999 17.6851L8.22499 16.4051H9.26499L9.53999 17.6851C9.57999 17.8751 9.72499 18.0201 9.91499 18.0601C10.56 18.1951 11.17 18.4551 11.73 18.8101C11.89 18.9101 12.095 18.9101 12.255 18.8101L13.36 18.0951L14.09 18.8251L13.375 19.9301C13.275 20.0901 13.275 20.2951 13.375 20.4551C13.735 21.0151 13.985 21.6251 14.125 22.2701C14.165 22.4601 14.31 22.6051 14.5 22.6451L15.78 22.9201V23.9551Z" fill="#2A2F64"/>
<path d="M14.5 22.64C14.31 22.6 14.165 22.455 14.125 22.265C13.985 21.62 13.73 21.01 13.375 20.45C13.275 20.29 13.275 20.085 13.375 19.925L14.09 18.82L13.36 18.09L12.255 18.805C12.095 18.905 11.89 18.905 11.73 18.805C11.17 18.445 10.56 18.19 9.91502 18.055C9.72502 18.015 9.58002 17.87 9.54002 17.68L9.26502 16.4H8.22502L7.95002 17.68C7.91002 17.87 7.76502 18.015 7.57502 18.055C6.93002 18.19 6.32502 18.45 5.76002 18.805C5.60002 18.905 5.39502 18.905 5.23502 18.805L4.13502 18.09L3.40002 18.825L4.11502 19.93C4.21502 20.09 4.21502 20.295 4.11502 20.455C3.75502 21.015 3.50502 21.625 3.36502 22.27C3.32502 22.46 3.18002 22.605 2.99002 22.645L1.71002 22.92V23.96L2.99002 24.235C3.18002 24.275 3.32502 24.42 3.36502 24.61C3.50502 25.255 3.76002 25.865 4.11502 26.425C4.21502 26.585 4.21502 26.79 4.11502 26.95L3.40002 28.05L4.13502 28.785L5.23502 28.07C5.39502 27.97 5.60002 27.97 5.76002 28.07C6.32002 28.43 6.93002 28.68 7.57502 28.82C7.76502 28.86 7.91002 29.005 7.95002 29.195L8.22502 30.475H9.26502L9.54002 29.195C9.58002 29.005 9.72502 28.86 9.91502 28.82C10.56 28.68 11.17 28.425 11.73 28.07C11.89 27.97 12.095 27.97 12.255 28.07L13.36 28.785L14.09 28.05L13.375 26.95C13.275 26.79 13.275 26.585 13.375 26.425C13.735 25.865 13.985 25.255 14.125 24.61C14.165 24.42 14.31 24.275 14.5 24.235L15.78 23.96V22.92L14.5 22.64ZM8.74502 27.075C6.74002 27.075 5.11002 25.445 5.11002 23.44C5.11002 21.435 6.74002 19.805 8.74502 19.805C10.75 19.805 12.38 21.435 12.38 23.44C12.38 25.445 10.75 27.075 8.74502 27.075Z" fill="#4EBCE5"/>
<path d="M14.5 22.64C14.31 22.6 14.165 22.455 14.125 22.265C13.985 21.62 13.73 21.01 13.375 20.45C13.275 20.29 13.275 20.085 13.375 19.925L14.09 18.82L13.36 18.09L12.255 18.805C12.095 18.905 11.89 18.905 11.73 18.805C11.17 18.445 10.56 18.19 9.91502 18.055C9.72502 18.015 9.58002 17.87 9.54002 17.68L9.26502 16.4H8.22502L7.95002 17.68C7.91002 17.87 7.76502 18.015 7.57502 18.055C6.93002 18.19 6.32502 18.45 5.76002 18.805C5.60002 18.905 5.39502 18.905 5.23502 18.805L4.13502 18.09L3.40002 18.825L4.11502 19.93C4.21502 20.09 4.21502 20.295 4.11502 20.455C3.75502 21.015 3.50502 21.625 3.36502 22.27C3.32502 22.46 3.18002 22.605 2.99002 22.645L1.71002 22.92V23.96L2.99002 24.235C3.18002 24.275 3.32502 24.42 3.36502 24.61C3.50502 25.255 3.76002 25.865 4.11502 26.425C4.21502 26.585 4.21502 26.79 4.11502 26.95L3.40002 28.05L4.13502 28.785L5.23502 28.07C5.39502 27.97 5.60002 27.97 5.76002 28.07C6.32002 28.43 6.93002 28.68 7.57502 28.82C7.76502 28.86 7.91002 29.005 7.95002 29.195L8.22502 30.475H9.26502L9.54002 29.195C9.58002 29.005 9.72502 28.86 9.91502 28.82C10.56 28.68 11.17 28.425 11.73 28.07C11.89 27.97 12.095 27.97 12.255 28.07L13.36 28.785L14.09 28.05L13.375 26.95C13.275 26.79 13.275 26.585 13.375 26.425C13.735 25.865 13.985 25.255 14.125 24.61C14.165 24.42 14.31 24.275 14.5 24.235L15.78 23.96V22.92L14.5 22.64ZM14.345 23.52C13.88 23.615 13.51 23.985 13.415 24.46C13.295 25.015 13.075 25.54 12.765 26.025C12.51 26.425 12.51 26.935 12.76 27.335L12.985 27.675L12.645 27.455C12.445 27.33 12.225 27.26 11.99 27.26C11.755 27.26 11.535 27.33 11.335 27.45C10.85 27.765 10.32 27.985 9.76002 28.105C9.29502 28.2 8.92502 28.57 8.83002 29.045L8.75002 29.43L8.67002 29.035C8.57502 28.57 8.20502 28.2 7.73002 28.105C7.18002 27.985 6.65502 27.765 6.16502 27.455C5.96502 27.33 5.74502 27.26 5.51002 27.26C5.27502 27.26 5.05502 27.33 4.85502 27.45L4.51502 27.675L4.73502 27.34C4.99002 26.94 4.99002 26.425 4.74002 26.025C4.42502 25.54 4.20502 25.01 4.08502 24.45C3.99002 23.985 3.62002 23.615 3.14502 23.52L2.75002 23.435L3.14502 23.355C3.61002 23.26 3.98002 22.89 4.07502 22.415C4.19502 21.86 4.41502 21.335 4.72502 20.85C4.98002 20.45 4.98002 19.94 4.73002 19.54L4.50502 19.2L4.84002 19.42C5.04502 19.545 5.26502 19.615 5.50002 19.615C5.73502 19.615 5.95502 19.545 6.15502 19.425C6.65502 19.105 7.18502 18.88 7.72502 18.77C8.19502 18.675 8.56502 18.305 8.66002 17.83L8.74002 17.445L8.82002 17.84C8.91502 18.305 9.28502 18.675 9.76002 18.77C10.305 18.885 10.83 19.105 11.325 19.42C11.525 19.545 11.745 19.615 11.98 19.615C12.215 19.615 12.435 19.545 12.635 19.425L12.975 19.2L12.755 19.54C12.5 19.94 12.5 20.45 12.75 20.85C13.065 21.335 13.275 21.865 13.405 22.425C13.535 22.97 13.875 23.27 14.345 23.355L14.73 23.435L14.345 23.52Z" fill="#36A8D9"/>
<path d="M25.47 25.895C25.335 25.26 24.96 24.715 24.42 24.37C23.875 24.015 23.225 23.9 22.595 24.035C21.285 24.315 20.45 25.605 20.735 26.915C20.975 28.05 21.985 28.83 23.105 28.83C23.27 28.83 23.445 28.81 23.615 28.77C24.245 28.635 24.79 28.26 25.14 27.72C25.49 27.175 25.61 26.525 25.47 25.895ZM24.325 27.19C24.11 27.52 23.785 27.745 23.41 27.825C22.625 27.99 21.85 27.49 21.685 26.71C21.515 25.925 22.015 25.15 22.8 24.98C22.9 24.96 23.005 24.95 23.105 24.95C23.38 24.95 23.655 25.03 23.895 25.185C24.22 25.395 24.445 25.72 24.525 26.1C24.55 26.2 24.56 26.305 24.56 26.405C24.56 26.68 24.475 26.95 24.325 27.19Z" fill="#2A2F64"/>
<path d="M28.69 25.83L28.435 24.625C28.385 24.4 28.19 24.245 27.96 24.24H27.105C26.95 23.95 26.76 23.675 26.545 23.425L26.845 22.625C26.925 22.41 26.845 22.17 26.655 22.045L25.615 21.375C25.425 21.255 25.17 21.28 25.01 21.445L24.405 22.045C24.09 21.95 23.76 21.89 23.43 21.865L23.075 21.09C22.985 20.88 22.755 20.77 22.53 20.815L21.325 21.075C21.1 21.12 20.94 21.315 20.94 21.545L20.935 22.4C20.645 22.56 20.375 22.75 20.12 22.965L19.32 22.665C19.105 22.585 18.865 22.66 18.745 22.855L18.075 23.89C17.95 24.085 17.98 24.335 18.14 24.495L18.74 25.1C18.645 25.42 18.585 25.745 18.56 26.08L17.785 26.43C17.575 26.525 17.46 26.75 17.51 26.975L17.77 28.18C17.82 28.405 18.01 28.565 18.24 28.565H19.095C19.255 28.855 19.445 29.13 19.66 29.385L19.36 30.18C19.28 30.4 19.355 30.635 19.55 30.76L20.59 31.43C20.78 31.55 21.03 31.525 21.19 31.365L21.795 30.76C22.115 30.855 22.44 30.915 22.775 30.94L23.125 31.72C23.205 31.895 23.38 32 23.565 32C23.6 32 23.635 32 23.665 31.99L24.87 31.735C25.095 31.685 25.255 31.49 25.255 31.26V30.405C25.55 30.25 25.82 30.06 26.075 29.84L26.875 30.145C27.09 30.225 27.325 30.145 27.45 29.95L28.12 28.915C28.24 28.72 28.215 28.47 28.055 28.31L27.45 27.705C27.545 27.385 27.605 27.06 27.63 26.73L28.41 26.375C28.625 26.285 28.735 26.055 28.69 25.83ZM26.965 25.97C26.795 26.05 26.685 26.22 26.685 26.41C26.685 26.835 26.605 27.26 26.45 27.665C26.38 27.84 26.425 28.045 26.56 28.18L27.1 28.72L26.86 29.1L26.14 28.835C25.965 28.765 25.76 28.81 25.625 28.94C25.325 29.245 24.97 29.49 24.58 29.665C24.405 29.745 24.295 29.915 24.295 30.105V30.865L23.855 30.96L23.54 30.26C23.46 30.09 23.295 29.98 23.1 29.98C22.675 29.975 22.25 29.9 21.85 29.745C21.79 29.725 21.735 29.715 21.675 29.715C21.55 29.715 21.43 29.765 21.335 29.855L20.79 30.395L20.41 30.155L20.68 29.435C20.75 29.26 20.705 29.055 20.57 28.92C20.265 28.615 20.02 28.265 19.85 27.875C19.77 27.7 19.6 27.59 19.41 27.59H18.645L18.555 27.15L19.25 26.835C19.425 26.755 19.535 26.59 19.535 26.395C19.535 25.97 19.615 25.545 19.765 25.145C19.835 24.965 19.79 24.76 19.66 24.63L19.115 24.085L19.36 23.705L20.075 23.975C20.255 24.045 20.455 24 20.59 23.865C20.895 23.56 21.25 23.315 21.635 23.14C21.81 23.06 21.92 22.895 21.92 22.7V21.94L22.36 21.85L22.675 22.545C22.755 22.72 22.925 22.83 23.115 22.83C23.545 22.83 23.97 22.91 24.37 23.06C24.545 23.13 24.75 23.085 24.885 22.95L25.425 22.41L25.805 22.655L25.54 23.37C25.47 23.55 25.515 23.75 25.645 23.885C25.95 24.19 26.2 24.545 26.37 24.93C26.45 25.105 26.62 25.215 26.81 25.215H27.57L27.665 25.655L26.965 25.97Z" fill="#2A2F64"/>
<path d="M26.45 27.665C26.605 27.26 26.685 26.835 26.685 26.41C26.685 26.22 26.795 26.045 26.965 25.97L27.665 25.655L27.57 25.215H26.81C26.62 25.215 26.445 25.105 26.37 24.93C26.195 24.54 25.95 24.19 25.645 23.885C25.515 23.75 25.47 23.55 25.54 23.37L25.805 22.655L25.425 22.41L24.885 22.95C24.75 23.085 24.545 23.13 24.37 23.06C23.97 22.91 23.545 22.83 23.115 22.83C22.925 22.83 22.75 22.72 22.675 22.545L22.36 21.85L21.92 21.94V22.7C21.92 22.895 21.81 23.065 21.635 23.14C21.245 23.32 20.895 23.56 20.59 23.865C20.455 24 20.255 24.045 20.075 23.975L19.36 23.705L19.115 24.085L19.66 24.63C19.79 24.76 19.835 24.965 19.765 25.145C19.615 25.545 19.535 25.97 19.535 26.395C19.535 26.59 19.425 26.76 19.25 26.835L18.555 27.15L18.645 27.59H19.41C19.6 27.59 19.77 27.7 19.85 27.875C20.025 28.27 20.265 28.615 20.57 28.92C20.705 29.055 20.75 29.26 20.68 29.435L20.41 30.155L20.79 30.395L21.335 29.855C21.425 29.765 21.55 29.715 21.675 29.715C21.735 29.715 21.79 29.725 21.85 29.745C22.25 29.895 22.675 29.975 23.1 29.98C23.295 29.98 23.465 30.09 23.54 30.26L23.855 30.96L24.295 30.865V30.105C24.295 29.915 24.405 29.74 24.58 29.665C24.975 29.485 25.325 29.245 25.625 28.94C25.76 28.81 25.965 28.765 26.14 28.835L26.86 29.1L27.1 28.72L26.56 28.18C26.425 28.045 26.38 27.84 26.45 27.665ZM25.14 27.72C24.785 28.265 24.245 28.635 23.615 28.77C23.445 28.81 23.27 28.83 23.105 28.83C21.985 28.83 20.975 28.05 20.735 26.915C20.455 25.605 21.29 24.315 22.595 24.035C23.225 23.9 23.875 24.015 24.42 24.37C24.965 24.72 25.335 25.26 25.47 25.895C25.61 26.525 25.49 27.175 25.14 27.72Z" fill="#FFDB7C"/>
<path d="M26.445 27.665C26.6 27.26 26.68 26.835 26.68 26.41C26.68 26.22 26.79 26.045 26.96 25.97L27.66 25.655L27.565 25.215H26.8C26.61 25.215 26.435 25.105 26.36 24.93C26.185 24.54 25.94 24.19 25.635 23.885C25.505 23.75 25.46 23.55 25.53 23.37L25.795 22.655L25.415 22.41L24.875 22.95C24.74 23.085 24.535 23.13 24.36 23.06C23.96 22.91 23.535 22.83 23.105 22.83C22.915 22.83 22.74 22.72 22.665 22.545L22.35 21.85L21.91 21.94V22.7C21.91 22.895 21.8 23.065 21.625 23.14C21.235 23.32 20.885 23.56 20.58 23.865C20.445 24 20.245 24.045 20.065 23.975L19.35 23.705L19.105 24.085L19.65 24.63C19.78 24.76 19.825 24.965 19.755 25.145C19.605 25.545 19.525 25.97 19.525 26.395C19.525 26.59 19.415 26.76 19.24 26.835L18.545 27.15L18.635 27.59H19.4C19.59 27.59 19.76 27.7 19.84 27.875C20.015 28.27 20.255 28.615 20.565 28.92C20.7 29.055 20.745 29.26 20.675 29.435L20.405 30.155L20.785 30.395L21.33 29.855C21.42 29.765 21.545 29.715 21.67 29.715C21.73 29.715 21.785 29.725 21.845 29.745C22.245 29.895 22.67 29.975 23.095 29.98C23.29 29.98 23.46 30.09 23.535 30.26L23.85 30.96L24.29 30.865V30.105C24.29 29.915 24.4 29.74 24.575 29.665C24.97 29.485 25.32 29.245 25.62 28.94C25.755 28.81 25.96 28.765 26.135 28.835L26.855 29.1L27.095 28.72L26.555 28.18C26.42 28.045 26.38 27.84 26.445 27.665ZM25.995 27.49C25.89 27.76 25.915 28.065 26.06 28.315C26.03 28.315 26 28.31 25.97 28.31C25.72 28.31 25.47 28.41 25.29 28.585C25.03 28.85 24.725 29.06 24.38 29.22C24.115 29.335 23.92 29.57 23.845 29.845C23.66 29.625 23.39 29.495 23.095 29.495C22.73 29.49 22.365 29.42 22.015 29.29C21.895 29.25 21.78 29.23 21.67 29.23C21.5 29.23 21.34 29.275 21.195 29.355C21.225 29.075 21.12 28.785 20.915 28.575C20.655 28.315 20.44 28.01 20.295 27.675C20.165 27.405 19.935 27.21 19.665 27.135C19.885 26.955 20.015 26.68 20.015 26.39C20.015 26.02 20.085 25.66 20.215 25.31C20.315 25.04 20.295 24.735 20.15 24.49H20.24C20.495 24.49 20.74 24.395 20.925 24.21C21.185 23.95 21.49 23.735 21.83 23.58C22.095 23.465 22.29 23.23 22.365 22.955C22.545 23.175 22.82 23.31 23.11 23.31C23.485 23.31 23.845 23.38 24.195 23.51C24.3 23.55 24.42 23.57 24.535 23.57C24.705 23.57 24.875 23.525 25.02 23.445C24.99 23.72 25.09 24.005 25.285 24.215C25.56 24.49 25.77 24.79 25.92 25.125C26.04 25.39 26.275 25.585 26.55 25.665C26.33 25.845 26.195 26.12 26.195 26.41C26.195 26.78 26.125 27.14 25.995 27.49Z" fill="#EBC15C"/>
</g>
<defs>
<clipPath id="clip0_7_45">
<rect width="32" height="32" fill="white"/>
</clipPath>
</defs>
</svg>
