<svg width="32" height="32" viewBox="0 0 32 32" fill="none" xmlns="http://www.w3.org/2000/svg">
<path d="M11 28H9V31H11V28Z" fill="#627D98"/>
<path d="M27 28H25V31H27V28Z" fill="#627D98"/>
<path d="M13.4627 4.49963H29.4999V28.4995H6.49991V14.3055" stroke="#627D98" stroke-linecap="round" stroke-linejoin="round"/>
<path d="M6.99991 20.4996H28.9999M12.5242 12.4996H28.9999H12.5242Z" stroke="#627D98"/>
<path d="M25.5 10C26.3284 10 27 9.32843 27 8.5C27 7.67157 26.3284 7 25.5 7C24.6716 7 24 7.67157 24 8.5C24 9.32843 24.6716 10 25.5 10Z" fill="#FADB61"/>
<path d="M20.5 10C21.3284 10 22 9.32843 22 8.5C22 7.67157 21.3284 7 20.5 7C19.6716 7 19 7.67157 19 8.5C19 9.32843 19.6716 10 20.5 10Z" fill="#FADB61"/>
<path d="M15.5 10C16.3284 10 17 9.32843 17 8.5C17 7.67157 16.3284 7 15.5 7C14.6716 7 14 7.67157 14 8.5C14 9.32843 14.6716 10 15.5 10Z" fill="#FADB61"/>
<path d="M25.5 18C26.3284 18 27 17.3284 27 16.5C27 15.6716 26.3284 15 25.5 15C24.6716 15 24 15.6716 24 16.5C24 17.3284 24.6716 18 25.5 18Z" fill="#FADB61"/>
<path d="M20.5 18C21.3284 18 22 17.3284 22 16.5C22 15.6716 21.3284 15 20.5 15C19.6716 15 19 15.6716 19 16.5C19 17.3284 19.6716 18 20.5 18Z" fill="#FADB61"/>
<path d="M15.5 18C16.3284 18 17 17.3284 17 16.5C17 15.6716 16.3284 15 15.5 15C14.6716 15 14 15.6716 14 16.5C14 17.3284 14.6716 18 15.5 18Z" fill="#FADB61"/>
<path d="M25.5 26C26.3284 26 27 25.3284 27 24.5C27 23.6716 26.3284 23 25.5 23C24.6716 23 24 23.6716 24 24.5C24 25.3284 24.6716 26 25.5 26Z" fill="#FADB61"/>
<path d="M20.5 26C21.3284 26 22 25.3284 22 24.5C22 23.6716 21.3284 23 20.5 23C19.6716 23 19 23.6716 19 24.5C19 25.3284 19.6716 26 20.5 26Z" fill="#FADB61"/>
<path d="M15.5 26C16.3284 26 17 25.3284 17 24.5C17 23.6716 16.3284 23 15.5 23C14.6716 23 14 23.6716 14 24.5C14 25.3284 14.6716 26 15.5 26Z" fill="#FADB61"/>
<path d="M11.1306 8.49172C11.1306 9.11765 10.9446 9.72937 10.5963 10.2485C10.248 10.7676 9.75328 11.1705 9.17557 11.4056C8.59786 11.6406 7.96342 11.6971 7.3535 11.5679C6.74358 11.4387 6.18596 11.1297 5.75203 10.6803C5.3181 10.2309 5.02764 9.66167 4.91783 9.04551C4.80802 8.42936 4.88387 7.7944 5.13567 7.22179C5.38747 6.6492 5.80374 6.16504 6.33118 5.83146C6.85862 5.49787 7.47321 5.33004 8.09625 5.34933" stroke="#2CB0ED" stroke-width="1.00004" stroke-linecap="round"/>
<path d="M8.35665 4.36523L9.21301 5.34512L8.35196 6.33038L8.35665 4.36523Z" stroke="#2CB0ED" stroke-width="1.00004" stroke-linecap="round" stroke-linejoin="round"/>
<path d="M7.99991 0.999634C4.13984 0.999634 0.999908 4.13963 0.999908 7.99963C0.999908 11.8597 4.13984 14.9996 7.99991 14.9996C11.86 14.9996 14.9999 11.8597 14.9999 7.99963C14.9999 4.13963 11.86 0.999634 7.99991 0.999634ZM7.99991 1.99963C11.3195 1.99963 13.9999 4.68003 13.9999 7.99963C13.9999 11.3193 11.3195 13.9996 7.99991 13.9996C4.68028 13.9996 1.99991 11.3193 1.99991 7.99963C1.99991 4.68003 4.68028 1.99963 7.99991 1.99963Z" fill="#627D98"/>
</svg>
