<svg width="32" height="32" viewBox="0 0 32 32" fill="none" xmlns="http://www.w3.org/2000/svg">
<path d="M31.4965 8.03153V23.9687C31.4965 24.8101 30.825 25.4923 29.9967 25.4923H1.99981C1.1715 25.4923 0.5 24.8101 0.5 23.9687V8.03153C0.5 7.19008 1.1715 6.50793 1.99981 6.50793H29.9967C30.825 6.50787 31.4965 7.19002 31.4965 8.03153Z" fill="white"/>
<path d="M11.4344 13.8555C11.4344 15.1905 10.8066 16.372 9.83812 17.1186C9.1665 17.6426 8.31968 17.9492 7.40468 17.9492C6.48968 17.9492 5.64293 17.6426 4.96643 17.1186C3.99793 16.372 3.37012 15.1904 3.37012 13.8555C3.37012 11.601 5.17568 9.76683 7.40468 9.76683C9.62881 9.76689 11.4344 11.6011 11.4344 13.8555Z" fill="#2CB0ED"/>
<path d="M8.51607 13.0958C8.51607 13.7194 8.01545 14.228 7.40163 14.228C6.78351 14.228 6.2872 13.7194 6.2872 13.0958C6.2872 12.4679 6.78345 11.9637 7.40163 11.9637C8.01545 11.9638 8.51607 12.4679 8.51607 13.0958ZM9.83751 17.1185C9.16588 17.6425 8.31907 17.9491 7.40407 17.9491C6.48907 17.9491 5.64232 17.6425 4.96582 17.1185C5.40382 16.1692 6.32857 15.5216 7.40407 15.5216C8.47476 15.5216 9.39951 16.1693 9.83751 17.1185Z" fill="#FADB61"/>
<path d="M29.9966 6H1.99975C0.897063 6 0 6.91136 0 8.03147V23.9685C0 25.0887 0.897125 26 1.99975 26H29.9966C31.0995 26 31.9964 25.0886 31.9964 23.9685V8.03147C31.9964 6.91136 31.0996 6 29.9966 6ZM30.9965 23.9686C30.9965 24.5288 30.5478 24.9843 29.9966 24.9843H1.99975C1.44831 24.9843 0.999875 24.5288 0.999875 23.9686V8.03147C0.999875 7.47129 1.44831 7.01574 1.99975 7.01574H29.9966C30.5478 7.01574 30.9965 7.47129 30.9965 8.03147V23.9686V23.9686Z" fill="#627D98"/>
<path d="M7.40455 9.2589C4.90437 9.2589 2.87012 11.3209 2.87012 13.8555C2.87012 16.4293 4.92099 18.4569 7.40455 18.4569C9.90699 18.4569 11.9343 16.4038 11.9343 13.8555C11.9343 11.3209 9.9023 9.2589 7.40455 9.2589ZM5.64224 16.9574C6.05312 16.3785 6.69512 16.0294 7.40455 16.0294C8.11199 16.0294 8.75249 16.3789 9.16286 16.9584C8.6348 17.2705 8.03724 17.4412 7.40455 17.4412C6.77293 17.4412 6.17405 17.2703 5.64224 16.9574ZM9.94893 16.3335C9.35211 15.5098 8.42743 15.0137 7.40455 15.0137C6.37912 15.0137 5.45255 15.51 4.85524 16.3339C4.2263 15.6706 3.87005 14.7957 3.87005 13.8556C3.87005 11.8812 5.45555 10.2747 7.40455 10.2747C9.35086 10.2747 10.9344 11.8812 10.9344 13.8556C10.9344 14.795 10.5785 15.6693 9.94893 16.3335Z" fill="#627D98"/>
<path d="M7.40214 11.4559C6.51208 11.4559 5.78783 12.1917 5.78783 13.0961C5.78783 14.0003 6.51214 14.736 7.40214 14.736C8.29214 14.736 9.01646 14.0002 9.01646 13.0961C9.01646 12.1917 8.29214 11.4559 7.40214 11.4559ZM7.40214 13.7203C7.06333 13.7203 6.7877 13.4403 6.7877 13.0961C6.7877 12.7459 7.0577 12.4717 7.40214 12.4717C7.74095 12.4717 8.01658 12.7519 8.01658 13.0961C8.01658 13.4403 7.74095 13.7203 7.40214 13.7203ZM14.9265 11.223H15.703C15.979 11.223 16.2029 10.9956 16.2029 10.7152C16.2029 10.4347 15.979 10.2073 15.703 10.2073H14.9265C14.6504 10.2073 14.4265 10.4347 14.4265 10.7152C14.4265 10.9957 14.6503 11.223 14.9265 11.223ZM18.5493 11.223H19.3261C19.6024 11.223 19.826 10.9956 19.826 10.7152C19.826 10.4347 19.6024 10.2073 19.3261 10.2073H18.5493C18.273 10.2073 18.0494 10.4347 18.0494 10.7152C18.0494 10.9957 18.273 11.223 18.5493 11.223ZM22.1725 11.223H22.9487C23.225 11.223 23.4486 10.9956 23.4486 10.7152C23.4486 10.4347 23.225 10.2073 22.9487 10.2073H22.1725C21.8962 10.2073 21.6725 10.4347 21.6725 10.7152C21.6725 10.9957 21.8962 11.223 22.1725 11.223ZM29.367 12.5882H14.9265C14.6504 12.5882 14.4265 12.8157 14.4265 13.0961C14.4265 13.3765 14.6504 13.604 14.9265 13.604H29.367C29.6433 13.604 29.867 13.3765 29.867 13.0961C29.867 12.8157 29.6433 12.5882 29.367 12.5882ZM14.9265 16.5334H22.9488C23.2251 16.5334 23.4487 16.306 23.4487 16.0255C23.4487 15.7451 23.2251 15.5177 22.9488 15.5177H14.9265C14.6504 15.5177 14.4265 15.7451 14.4265 16.0255C14.4265 16.306 14.6503 16.5334 14.9265 16.5334ZM29.367 18.4473H14.9265C14.6504 18.4473 14.4265 18.6748 14.4265 18.9552C14.4265 19.2357 14.6504 19.4631 14.9265 19.4631H29.367C29.6433 19.4631 29.867 19.2357 29.867 18.9552C29.867 18.6748 29.6433 18.4473 29.367 18.4473ZM22.9487 21.3771H14.9265C14.6504 21.3771 14.4265 21.6045 14.4265 21.885C14.4265 22.1654 14.6504 22.3928 14.9265 22.3928H22.9488C23.2251 22.3928 23.4487 22.1654 23.4487 21.885C23.4487 21.6045 23.2251 21.3771 22.9487 21.3771ZM9.27127 21.7253H5.53314C5.25708 21.7253 5.0332 21.9527 5.0332 22.2331C5.0332 22.5136 5.25708 22.741 5.53314 22.741H9.27127C9.54733 22.741 9.77121 22.5136 9.77121 22.2331C9.77121 21.9527 9.54739 21.7253 9.27127 21.7253Z" fill="#627D98"/>
</svg>
