<svg width="24" height="28" viewBox="0 0 24 28" fill="none" xmlns="http://www.w3.org/2000/svg">
<path d="M7.38519 28C7.07058 28 6.76885 27.8823 6.54639 27.6729C6.32392 27.4634 6.19895 27.1793 6.19895 26.8831V3.24848L1.86324 6.07435C1.60447 6.2432 1.28506 6.30835 0.975283 6.25546C0.665503 6.20257 0.390725 6.03597 0.211397 5.79232C0.0320688 5.54867 -0.0371199 5.24792 0.019052 4.95624C0.075224 4.66455 0.252155 4.40583 0.510922 4.23697L6.70903 0.199215C6.88684 0.0830682 7.095 0.0149335 7.31099 0.00218763C7.52697 -0.0105582 7.74254 0.0325704 7.93436 0.126904C8.12618 0.221237 8.28694 0.363182 8.39923 0.537368C8.51152 0.711554 8.57107 0.911346 8.57143 1.11511V26.8831C8.57143 27.1793 8.44645 27.4634 8.22399 27.6729C8.00152 27.8823 7.6998 28 7.38519 28Z" fill="#2CB0ED"/>
<path d="M16.614 28C16.4218 27.9999 16.2325 27.9558 16.0624 27.8716C15.871 27.7769 15.7107 27.6348 15.5988 27.4606C15.487 27.2864 15.4278 27.0867 15.4277 26.8831V1.11687C15.4277 0.82066 15.5527 0.536579 15.7752 0.327125C15.9976 0.11767 16.2994 0 16.614 0C16.9286 0 17.2303 0.11767 17.4528 0.327125C17.6752 0.536579 17.8002 0.82066 17.8002 1.11687V24.7499L22.1359 21.9242C22.2641 21.8406 22.4084 21.7816 22.5608 21.7505C22.7131 21.7194 22.8705 21.7169 23.0239 21.7431C23.1773 21.7693 23.3237 21.8237 23.4547 21.9031C23.5858 21.9826 23.699 22.0856 23.7878 22.2062C23.8766 22.3269 23.9393 22.4628 23.9723 22.6062C24.0053 22.7497 24.0079 22.8978 23.9801 23.0423C23.9523 23.1867 23.8945 23.3245 23.8102 23.4479C23.7258 23.5713 23.6164 23.6779 23.4882 23.7615L17.2901 27.799C17.0918 27.9293 16.8559 27.9995 16.614 28Z" fill="#FADB61"/>
</svg>
