<svg width="36" height="36" viewBox="0 0 36 36" fill="none" xmlns="http://www.w3.org/2000/svg">
<path d="M31.7362 8.4375H4.26375C3.46225 8.4375 2.8125 9.08725 2.8125 9.88875V26.1112C2.8125 26.9128 3.46225 27.5625 4.26375 27.5625H31.7362C32.5378 27.5625 33.1875 26.9128 33.1875 26.1112V9.88875C33.1875 9.08725 32.5378 8.4375 31.7362 8.4375Z" stroke="black" stroke-linecap="round" stroke-linejoin="round"/>
<path d="M27.5175 20.9249L27.3038 21.0487C26.7306 21.3565 26.0865 21.5078 25.4363 21.4874C24.9516 21.5102 24.4675 21.431 24.0155 21.2549C23.5634 21.0788 23.1533 20.8097 22.8118 20.465C22.4703 20.1203 22.205 19.7078 22.0331 19.2541C21.8612 18.8003 21.7864 18.3156 21.8138 17.8312C21.7879 16.8318 22.1556 15.8622 22.8375 15.1312C23.183 14.8015 23.5908 14.5442 24.0371 14.3742C24.4833 14.2042 24.959 14.125 25.4363 14.1412C25.9164 14.1187 26.396 14.1968 26.8443 14.3703C27.2926 14.5438 27.6998 14.8091 28.0397 15.149C28.3796 15.4889 28.6448 15.896 28.8184 16.3443C28.9919 16.7926 29.0699 17.2722 29.0475 17.7524C29.066 18.5109 28.8711 19.2593 28.485 19.9124L28.35 20.1374L29.1938 20.9587L28.3838 21.7799L27.5175 20.9249ZM25.4363 15.1649C25.1132 15.152 24.7909 15.2052 24.4891 15.3212C24.1873 15.4373 23.9124 15.6138 23.6813 15.8399C23.4313 16.1122 23.238 16.4314 23.1124 16.779C22.9869 17.1267 22.9317 17.4958 22.95 17.8649C22.9347 18.1997 22.9878 18.5341 23.1062 18.8476C23.2245 19.1612 23.4056 19.4473 23.6384 19.6884C23.8711 19.9296 24.1506 20.1207 24.4597 20.2501C24.7688 20.3796 25.1011 20.4446 25.4363 20.4412C25.7627 20.4489 26.0871 20.389 26.3892 20.265C26.6913 20.1411 26.9644 19.9559 27.1913 19.7212C27.4383 19.4497 27.6292 19.132 27.7527 18.7863C27.8763 18.4407 27.9302 18.074 27.9113 17.7074C27.9284 17.3747 27.8766 17.0421 27.7592 16.7303C27.6418 16.4186 27.4612 16.1345 27.2289 15.8958C26.9965 15.6571 26.7173 15.4689 26.4089 15.3432C26.1004 15.2174 25.7693 15.1567 25.4363 15.1649V15.1649ZM20.34 21.3749L19.7213 20.2499H15.75L15.12 21.3749H13.995L17.0213 14.6249H18.315L21.3413 21.3749H20.34ZM16.245 19.1249H19.2713L17.7525 15.6599L16.245 19.1249ZM9 21.3749V14.6249H13.5V15.7499H10.125V17.9999H13.5V19.1249H10.125V21.3749H9Z" fill="black"/>
</svg>
