<svg width="32" height="32" viewBox="0 0 32 32" fill="none" xmlns="http://www.w3.org/2000/svg">
<path d="M16 8.12308C18.1752 8.12308 19.9385 6.35977 19.9385 4.18462C19.9385 2.00946 18.1752 0.246155 16 0.246155C13.8248 0.246155 12.0615 2.00946 12.0615 4.18462C12.0615 6.35977 13.8248 8.12308 16 8.12308Z" fill="#627D98"/>
<path d="M24.1723 16.4923C23.9754 12.1107 20.4308 8.61536 16 8.61536C11.5692 8.61536 7.97538 12.1107 7.82769 16.4923H24.1723Z" fill="#627D98"/>
<path d="M4.03692 27.8646C5.04293 27.8646 5.85846 27.0491 5.85846 26.0431C5.85846 25.0371 5.04293 24.2216 4.03692 24.2216C3.03092 24.2216 2.21539 25.0371 2.21539 26.0431C2.21539 27.0491 3.03092 27.8646 4.03692 27.8646Z" fill="#2CB0ED"/>
<path d="M7.82769 31.7539C7.72923 29.7354 6.10462 28.1108 4.03692 28.1108C1.96923 28.1108 0.344616 29.7354 0.246155 31.7539H7.82769Z" fill="#2CB0ED"/>
<path d="M16 27.8646C17.006 27.8646 17.8215 27.0491 17.8215 26.0431C17.8215 25.0371 17.006 24.2216 16 24.2216C14.994 24.2216 14.1785 25.0371 14.1785 26.0431C14.1785 27.0491 14.994 27.8646 16 27.8646Z" fill="#FADB61"/>
<path d="M19.7908 31.7539C19.6923 29.7354 18.0677 28.1108 16 28.1108C13.9323 28.1108 12.3077 29.7354 12.2092 31.7539H19.7908Z" fill="#FADB61"/>
<path d="M27.9631 27.8646C28.9691 27.8646 29.7846 27.0491 29.7846 26.0431C29.7846 25.0371 28.9691 24.2216 27.9631 24.2216C26.9571 24.2216 26.1415 25.0371 26.1415 26.0431C26.1415 27.0491 26.9571 27.8646 27.9631 27.8646Z" fill="#8CEDC6"/>
<path d="M31.7538 31.7539C31.6554 29.7354 30.0308 28.1108 27.9631 28.1108C25.8954 28.1108 24.2708 29.7354 24.1723 31.7539H31.7538Z" fill="#8CEDC6"/>
<path d="M16.5908 19.8893V17.6246H15.4092V19.8893H3.44615V23.3354H4.62769V21.0708H15.4092V23.3354H16.5908V21.0708H27.3723V23.3354H28.5538V19.8893H16.5908Z" fill="#627D98"/>
</svg>
