<svg width="32" height="32" viewBox="0 0 32 32" fill="none" xmlns="http://www.w3.org/2000/svg">
<path d="M16 19.75H4C2.35 19.75 1 18.4 1 16.75C1 15.1 2.35 13.75 4 13.75H16C17.65 13.75 19 15.1 19 16.75C19 18.4 17.65 19.75 16 19.75Z" fill="white"/>
<path d="M3.5 10.8V8H28.5V29.5H3.5V10.8Z" fill="white"/>
<path d="M30.25 28.75H29.25V8C29.25 7.575 28.925 7.25 28.5 7.25H3.5C3.075 7.25 2.75 7.575 2.75 8V10.8C2.75 11.225 3.075 11.55 3.5 11.55C3.925 11.55 4.25 11.225 4.25 10.8V8.75H27.75V28.75H4.25V22.7C4.25 22.275 3.925 21.95 3.5 21.95C3.075 21.95 2.75 22.275 2.75 22.7V28.75H1.75C0.925 28.75 0.25 29.425 0.25 30.25C0.25 31.075 0.925 31.75 1.75 31.75H30.25C31.075 31.75 31.75 31.075 31.75 30.25C31.75 29.425 31.075 28.75 30.25 28.75Z" fill="#627D98"/>
<path d="M16 20.5H4C1.925 20.5 0.25 18.825 0.25 16.75C0.25 14.675 1.925 13 4 13H16C18.075 13 19.75 14.675 19.75 16.75C19.75 18.825 18.075 20.5 16 20.5ZM4 14.5C2.75 14.5 1.75 15.5 1.75 16.75C1.75 18 2.75 19 4 19H16C17.25 19 18.25 18 18.25 16.75C18.25 15.5 17.25 14.5 16 14.5H4Z" fill="#2CB0ED"/>
<path d="M5.5 17.5C5.3 17.5 5.1 17.425 4.975 17.275C4.825 17.15 4.75 16.95 4.75 16.75C4.75 16.55 4.825 16.35 4.975 16.225C5.25 15.95 5.75 15.95 6.025 16.225C6.175 16.375 6.25 16.55 6.25 16.75C6.25 16.95 6.175 17.15 6.025 17.275C5.9 17.425 5.7 17.5 5.5 17.5ZM8.5 17.5C8.3 17.5 8.1 17.425 7.975 17.275C7.825 17.15 7.75 16.95 7.75 16.75C7.75 16.7 7.75 16.65 7.775 16.6C7.775 16.55 7.8 16.5 7.825 16.45C7.85 16.4 7.875 16.375 7.9 16.325C7.925 16.275 7.95 16.25 8 16.2C8.175 16.025 8.425 15.95 8.675 16C8.725 16 8.775 16.025 8.825 16.05C8.875 16.075 8.925 16.1 8.95 16.125C9 16.15 9.025 16.175 9.075 16.225C9.1 16.25 9.15 16.3 9.175 16.35C9.2 16.4 9.225 16.425 9.25 16.475C9.275 16.525 9.275 16.575 9.3 16.625C9.3 16.675 9.325 16.725 9.325 16.775C9.325 16.975 9.25 17.175 9.1 17.3C9.075 17.325 9.025 17.375 8.975 17.4C8.925 17.425 8.9 17.45 8.85 17.475C8.8 17.5 8.75 17.5 8.7 17.525C8.6 17.5 8.55 17.5 8.5 17.5ZM11.5 17.5C11.3 17.5 11.1 17.425 10.975 17.275C10.825 17.15 10.75 16.95 10.75 16.75C10.75 16.7 10.75 16.65 10.775 16.6C10.775 16.55 10.8 16.5 10.825 16.45C10.85 16.4 10.875 16.375 10.9 16.325C10.925 16.275 10.95 16.25 11 16.2C11.275 15.925 11.775 15.925 12.05 16.2C12.2 16.35 12.275 16.525 12.275 16.725C12.275 16.925 12.2 17.125 12.05 17.25C11.9 17.425 11.7 17.5 11.5 17.5ZM14.5 17.5C14.45 17.5 14.4 17.5 14.35 17.475C14.3 17.475 14.25 17.45 14.2 17.425C14.15 17.4 14.125 17.375 14.075 17.35C14.025 17.325 14 17.3 13.95 17.25C13.925 17.225 13.875 17.175 13.85 17.15C13.825 17.1 13.8 17.075 13.775 17.025C13.75 16.975 13.75 16.925 13.725 16.875C13.725 16.825 13.7 16.775 13.7 16.725C13.7 16.675 13.7 16.625 13.725 16.575C13.725 16.525 13.75 16.475 13.775 16.425C13.8 16.375 13.825 16.35 13.85 16.3C13.875 16.25 13.9 16.225 13.95 16.175C14 16.125 14.025 16.1 14.075 16.075C14.125 16.05 14.15 16.025 14.2 16C14.25 15.975 14.3 15.975 14.35 15.95C14.45 15.925 14.55 15.925 14.65 15.95C14.7 15.95 14.75 15.975 14.8 16C14.85 16.025 14.9 16.05 14.925 16.075C14.975 16.1 15 16.125 15.05 16.175C15.075 16.2 15.125 16.25 15.15 16.3C15.175 16.35 15.2 16.375 15.225 16.425C15.25 16.475 15.25 16.525 15.275 16.575C15.275 16.625 15.3 16.675 15.3 16.725C15.3 16.925 15.225 17.125 15.075 17.25C15.05 17.275 15 17.325 14.95 17.35C14.9 17.375 14.875 17.4 14.825 17.425C14.775 17.45 14.725 17.45 14.675 17.475C14.6 17.5 14.55 17.5 14.5 17.5Z" fill="#FADB61"/>
</svg>
