<svg width="32" height="32" viewBox="0 0 32 32" fill="none" xmlns="http://www.w3.org/2000/svg">
<path d="M11.2776 21.5535C4.61309 22.1934 0 24.0593 0 26.6666C0 29.8583 7.13884 32 16 32C24.8612 32 32 29.8583 32 26.6666C32 24.073 27.4392 22.2145 20.8293 21.5639L11.3512 21.55L11.2776 21.5535Z" fill="#627D98"/>
<path d="M20.7534 23.084C26.4797 23.6512 30.4758 25.2796 30.4758 26.6666C30.4758 28.5244 23.97 30.4761 15.9996 30.4761C8.02926 30.4761 1.52344 28.5244 1.52344 26.6666C1.52344 25.2721 5.55379 23.639 11.3863 23.0738L20.7534 23.084Z" fill="#2CB0ED"/>
<path d="M4.57129 11.4286C4.57129 5.11678 9.68804 0 15.9999 0C22.3117 0 27.4284 5.11678 27.4284 11.4286C27.4284 14.5446 26.1744 17.4632 23.9969 19.5932L16.5386 27.0524C16.2411 27.35 15.7587 27.35 15.4611 27.0524L7.98911 19.5803C5.81754 17.4455 4.57129 14.535 4.57129 11.4286Z" fill="#627D98"/>
<path d="M22.926 18.5098C24.8193 16.6577 25.9052 14.1304 25.9052 11.4286C25.9052 5.95834 21.4707 1.5238 16.0005 1.5238C10.5302 1.5238 6.0957 5.95834 6.0957 11.4286C6.0957 14.1221 7.17489 16.6425 9.06259 18.4982L16.0004 25.4361L22.926 18.5098Z" fill="white"/>
<path d="M16.0003 16.762C18.9458 16.762 21.3337 14.3742 21.3337 11.4286C21.3337 8.48311 18.9458 6.09528 16.0003 6.09528C13.0548 6.09528 10.667 8.48311 10.667 11.4286C10.667 14.3742 13.0548 16.762 16.0003 16.762Z" fill="#627D98"/>
<path d="M16 15.2382C13.896 15.2382 12.1904 13.5326 12.1904 11.4286C12.1904 9.32467 13.896 7.61908 16 7.61908C18.1039 7.61908 19.8095 9.32467 19.8095 11.4286C19.8095 13.5326 18.1039 15.2382 16 15.2382Z" fill="#FADB61"/>
</svg>
