<svg width="34" height="20" viewBox="0 0 34 20" fill="none" xmlns="http://www.w3.org/2000/svg">
<g style="mix-blend-mode:multiply">
<path fill-rule="evenodd" clip-rule="evenodd" d="M3.33329 0C1.49236 0 0 1.49236 0 3.33329V16.6664C0 18.4305 1.37034 19.8745 3.1046 19.992C1.37157 19.8732 0.00258705 18.4298 0.00258705 16.6666C0.00258705 15.7404 0.380341 14.9025 0.990184 14.2984L6.66658 8.62199V3.33329C6.66658 1.49236 5.17421 0 3.33329 0Z" fill="#F8BF2D"/>
</g>
<g style="mix-blend-mode:multiply">
<path fill-rule="evenodd" clip-rule="evenodd" d="M5.70368 19.01C6.29901 18.4079 6.66658 17.5801 6.66658 16.6665V8.61914L0.976359 14.3094L0.976384 14.3094C0.373127 14.9126 0 15.746 0 16.6665C0 18.5074 1.49236 19.9998 3.33329 19.9998C4.25905 19.9998 5.09667 19.6223 5.70068 19.013L5.70368 19.01Z" fill="#45D1D1"/>
</g>
<g style="mix-blend-mode:multiply">
<path fill-rule="evenodd" clip-rule="evenodd" d="M19.0155 19.0233C19.6187 18.4201 19.9918 17.5868 19.9918 16.6664V8.61914L14.3206 14.2903C13.7119 14.8892 13.3323 15.7203 13.3252 16.64V16.6664C13.3252 18.1855 14.3414 19.4673 15.7311 19.869C16.0255 19.9541 16.3366 19.9997 16.6584 19.9997C17.5789 19.9997 18.4122 19.6265 19.0155 19.0233L19.0155 19.0233Z" fill="#003993"/>
</g>
<g style="mix-blend-mode:multiply">
<path fill-rule="evenodd" clip-rule="evenodd" d="M13.3408 11.3735L19.0241 5.69024L19.0224 5.68854C19.6246 5.08547 19.9969 4.25286 19.9969 3.33329C19.9969 1.49236 18.5046 0 16.6636 0C16.6523 0 16.641 5.62852e-05 16.6298 0.000168591C14.8093 0.0239099 13.3408 1.50705 13.3408 3.33317V11.3735Z" fill="#007BC3"/>
</g>
<g style="mix-blend-mode:multiply">
<path fill-rule="evenodd" clip-rule="evenodd" d="M3.08496 19.9904C3.16826 19.9967 3.25241 19.9998 3.3373 19.9998C4.27624 19.9998 5.1245 19.6116 5.73033 18.9869L13.3342 11.3831V3.3332C13.3342 1.64966 14.5823 0.257633 16.2037 0.0319206C16.3271 0.014719 16.4527 0.0042746 16.5801 0.000976562C15.6387 0.0245598 14.7943 0.438421 14.2025 1.08683L6.66825 8.62104V16.6664C6.66825 18.5073 5.17589 19.9997 3.33496 19.9997C3.25087 19.9997 3.1675 19.9965 3.08496 19.9904Z" fill="#22AEE5"/>
</g>
<g style="mix-blend-mode:multiply">
<path fill-rule="evenodd" clip-rule="evenodd" d="M13.3312 16.4646C13.3272 16.5314 13.3252 16.5988 13.3252 16.6666C13.3252 18.5075 14.8176 19.9999 16.6585 19.9999C16.6962 19.9999 16.7337 19.9993 16.7711 19.998C16.7357 19.9992 16.7002 19.9997 16.6645 19.9997C14.8236 19.9997 13.3312 18.5074 13.3312 16.6664V16.4646ZM19.1366 18.9025L32.3488 5.69024L32.3462 5.68767C32.9479 5.08467 33.3199 4.25242 33.3199 3.33329C33.3199 1.49236 31.8276 0 29.9866 0C29.01 0 28.1315 0.42 27.5218 1.08923L19.9978 8.61328V16.6664C19.9978 17.5268 19.6718 18.3111 19.1366 18.9025Z" fill="#684AA8"/>
</g>
<g style="mix-blend-mode:multiply">
<path fill-rule="evenodd" clip-rule="evenodd" d="M18.3583 0.46619C19.3359 1.04721 19.991 2.11392 19.991 3.33364C19.991 4.32042 19.5623 5.20705 18.8808 5.81737L13.3262 11.372V16.4399C13.3828 15.5975 13.7524 14.8409 14.3197 14.2854L19.9928 8.61228V3.33351C19.9928 2.11362 19.3374 1.04678 18.3596 0.46582L18.3583 0.46619ZM16.7603 19.9985C17.6377 19.9704 18.4295 19.6033 19.009 19.0238L19.0091 19.0239L19.1428 18.8902C18.5533 19.5481 17.7063 19.9704 16.7603 19.9985Z" fill="#22AEE5"/>
</g>
</svg>
