<svg width="40" height="40" viewBox="0 0 40 40" fill="none" xmlns="http://www.w3.org/2000/svg">
<rect x="0.000366211" width="40" height="40" rx="20" fill="#F8F8F8"/>
<path d="M13.6254 14.75C14.2467 14.75 14.7504 14.2463 14.7504 13.625C14.7504 13.0037 14.2467 12.5 13.6254 12.5C13.004 12.5 12.5004 13.0037 12.5004 13.625C12.5004 14.2463 13.004 14.75 13.6254 14.75Z" fill="black"/>
<path d="M20.0004 14.75C20.6217 14.75 21.1254 14.2463 21.1254 13.625C21.1254 13.0037 20.6217 12.5 20.0004 12.5C19.379 12.5 18.8754 13.0037 18.8754 13.625C18.8754 14.2463 19.379 14.75 20.0004 14.75Z" fill="black"/>
<path d="M26.3754 14.75C26.9967 14.75 27.5004 14.2463 27.5004 13.625C27.5004 13.0037 26.9967 12.5 26.3754 12.5C25.754 12.5 25.2504 13.0037 25.2504 13.625C25.2504 14.2463 25.754 14.75 26.3754 14.75Z" fill="black"/>
<path d="M13.6254 21.125C14.2467 21.125 14.7504 20.6213 14.7504 20C14.7504 19.3787 14.2467 18.875 13.6254 18.875C13.004 18.875 12.5004 19.3787 12.5004 20C12.5004 20.6213 13.004 21.125 13.6254 21.125Z" fill="black"/>
<path d="M20.0004 21.125C20.6217 21.125 21.1254 20.6213 21.1254 20C21.1254 19.3787 20.6217 18.875 20.0004 18.875C19.379 18.875 18.8754 19.3787 18.8754 20C18.8754 20.6213 19.379 21.125 20.0004 21.125Z" fill="black"/>
<path d="M26.3754 21.125C26.9967 21.125 27.5004 20.6213 27.5004 20C27.5004 19.3787 26.9967 18.875 26.3754 18.875C25.754 18.875 25.2504 19.3787 25.2504 20C25.2504 20.6213 25.754 21.125 26.3754 21.125Z" fill="black"/>
<path d="M13.6254 27.5C14.2467 27.5 14.7504 26.9963 14.7504 26.375C14.7504 25.7537 14.2467 25.25 13.6254 25.25C13.004 25.25 12.5004 25.7537 12.5004 26.375C12.5004 26.9963 13.004 27.5 13.6254 27.5Z" fill="black"/>
<path d="M20.0004 27.5C20.6217 27.5 21.1254 26.9963 21.1254 26.375C21.1254 25.7537 20.6217 25.25 20.0004 25.25C19.379 25.25 18.8754 25.7537 18.8754 26.375C18.8754 26.9963 19.379 27.5 20.0004 27.5Z" fill="black"/>
<path d="M26.3754 27.5C26.9967 27.5 27.5004 26.9963 27.5004 26.375C27.5004 25.7537 26.9967 25.25 26.3754 25.25C25.754 25.25 25.2504 25.7537 25.2504 26.375C25.2504 26.9963 25.754 27.5 26.3754 27.5Z" fill="black"/>
</svg>
