<svg width="32" height="32" viewBox="0 0 32 32" fill="none" xmlns="http://www.w3.org/2000/svg">
<path d="M23.7241 13.2414C26.4665 13.2414 28.6896 11.0182 28.6896 8.27585C28.6896 5.53347 26.4665 3.31033 23.7241 3.31033C20.9817 3.31033 18.7586 5.53347 18.7586 8.27585C18.7586 11.0182 20.9817 13.2414 23.7241 13.2414Z" fill="#FADB61"/>
<path d="M16.5517 7.72415H5.51723C4.93192 7.72415 4.37059 7.95666 3.95672 8.37054C3.54284 8.78441 3.31033 9.34574 3.31033 9.93105V26.4828C3.31033 27.0681 3.54284 27.6294 3.95672 28.0433C4.37059 28.4572 4.93192 28.6897 5.51723 28.6897H22.069C22.6543 28.6897 23.2156 28.4572 23.6295 28.0433C24.0433 27.6294 24.2759 27.0681 24.2759 26.4828V15.4483" stroke="#2CB0ED" stroke-width="2" stroke-miterlimit="10"/>
</svg>
