<svg width="32" height="32" viewBox="0 0 32 32" fill="none" xmlns="http://www.w3.org/2000/svg">
<g clip-path="url(#clip0_2_511)">
<path d="M7.69321 9.91327H1.95728V20.0867H7.69321V9.91327Z" fill="white"/>
<path d="M20.8381 28.0458L7.69321 20.0867V9.91327L20.8381 1.95409V28.0458Z" fill="white"/>
<path d="M7.69321 9.91327H1.95728V20.0867H7.69321V9.91327Z" fill="#D9E2EC"/>
<path d="M20.8381 28.0458L7.69321 20.0867V9.91327L20.8381 1.95409V28.0458Z" fill="#D9E2EC"/>
<path d="M7.69321 20.0867L20.8381 28.0458V24.9938L7.69321 17.0346V20.0867Z" fill="white"/>
<path d="M1.95728 17.3339V20.0867H7.69321V17.3339H1.95728Z" fill="white"/>
<path d="M20.3424 1.13511L7.42606 8.95585H1.95726C1.42862 8.95585 1 9.38452 1 9.91335V20.0867C1 20.6156 1.42862 21.0442 1.95726 21.0442H7.42606L20.3424 28.865C20.9698 29.245 21.7954 28.7764 21.7954 28.0459V1.95417C21.7954 1.22336 20.9691 0.755438 20.3424 1.13511ZM2.91453 10.8709H6.73593V19.1292H2.91453V10.8709ZM19.8809 26.347L8.65046 19.5471V10.453L19.8809 3.65308V26.347Z" fill="#48647F"/>
<path d="M29 14.0425H24.0197V15.9575H29V14.0425Z" fill="#1991D2"/>
<path d="M27.0642 6.5968L23.5842 10.0809L24.9389 11.434L28.419 7.94996L27.0642 6.5968Z" fill="#1991D2"/>
<path d="M24.9402 18.5637L23.5852 19.9166L27.0645 23.4015L28.4195 22.0486L24.9402 18.5637Z" fill="#1991D2"/>
</g>
<defs>
<clipPath id="clip0_2_511">
<rect width="28" height="28" fill="white" transform="translate(1 1)"/>
</clipPath>
</defs>
</svg>
