<svg width="32" height="32" viewBox="0 0 32 32" fill="none" xmlns="http://www.w3.org/2000/svg">
<path fill-rule="evenodd" clip-rule="evenodd" d="M23.1464 4.14645C23.3417 3.95118 23.6583 3.95118 23.8536 4.14645L27.8536 8.14645C28.0488 8.34171 28.0488 8.65829 27.8536 8.85355L24.8536 11.8536L15.8536 20.8536C15.7598 20.9473 15.6326 21 15.5 21H11.5C11.2239 21 11 20.7761 11 20.5V16.5C11 16.3674 11.0527 16.2402 11.1464 16.1464L20.1464 7.14645L23.1464 4.14645ZM26.7929 8.5L24.5 10.7929L21.2071 7.5L23.5 5.20711L26.7929 8.5ZM23.7929 11.5L20.5 8.20711L12 16.7071V20H15.2929L23.7929 11.5ZM5.14645 6.14645C5.24022 6.05268 5.36739 6 5.5 6H16.5C16.7761 6 17 5.77614 17 5.5C17 5.22386 16.7761 5 16.5 5H5.5C5.10217 5 4.72064 5.15804 4.43934 5.43934C4.15804 5.72064 4 6.10217 4 6.5V26.5C4 26.8978 4.15804 27.2794 4.43934 27.5607C4.72065 27.842 5.10218 28 5.5 28H25.5C25.8978 28 26.2794 27.842 26.5607 27.5607C26.842 27.2794 27 26.8978 27 26.5V15.5C27 15.2239 26.7761 15 26.5 15C26.2239 15 26 15.2239 26 15.5V26.5C26 26.6326 25.9473 26.7598 25.8536 26.8536C25.7598 26.9473 25.6326 27 25.5 27H5.5C5.36739 27 5.24021 26.9473 5.14645 26.8536C5.05268 26.7598 5 26.6326 5 26.5V6.5C5 6.36739 5.05268 6.24022 5.14645 6.14645Z" fill="black"/>
</svg>
