<svg width="40" height="40" viewBox="0 0 40 40" fill="none" xmlns="http://www.w3.org/2000/svg">
<rect x="0.000366211" width="40" height="40" rx="20" fill="#F8F8F8"/>
<path d="M13.2694 17.7813C13.2682 16.8918 13.443 16.0109 13.7838 15.1893C14.1246 14.3677 14.6247 13.6216 15.2551 12.9942C15.8856 12.3667 16.6341 11.8703 17.4573 11.5334C18.2805 11.1966 19.1623 11.026 20.0518 11.0315C23.7633 11.0591 26.7321 14.1441 26.7321 17.8661V18.5313C26.7321 21.889 27.4346 23.8375 28.0533 24.9024C28.12 25.0162 28.1554 25.1455 28.1561 25.2774C28.1568 25.4093 28.1227 25.539 28.0573 25.6535C27.9919 25.768 27.8974 25.8632 27.7834 25.9295C27.6695 25.9959 27.54 26.031 27.4081 26.0313H12.5926C12.4607 26.031 12.3312 25.9959 12.2173 25.9295C12.1033 25.8632 12.0088 25.7679 11.9434 25.6534C11.878 25.5389 11.8439 25.4091 11.8446 25.2773C11.8453 25.1454 11.8808 25.016 11.9475 24.9022C12.5666 23.8373 13.2694 21.8889 13.2694 18.5313L13.2694 17.7813Z" stroke="black" stroke-linecap="round" stroke-linejoin="round"/>
<path d="M17.0004 26.0312V26.7812C17.0004 27.5769 17.3164 28.34 17.879 28.9026C18.4417 29.4652 19.2047 29.7812 20.0004 29.7812C20.796 29.7812 21.5591 29.4652 22.1217 28.9026C22.6843 28.34 23.0004 27.5769 23.0004 26.7812V26.0312" stroke="black" stroke-linecap="round" stroke-linejoin="round"/>
<rect x="24.0004" width="16" height="16" rx="8" fill="#ED5D5D"/>
<path d="M29.876 12H34.326V10.81H32.936V4.59H31.846C31.376 4.89 30.866 5.08 30.126 5.22V6.13H31.466V10.81H29.876V12Z" fill="white"/>
</svg>
