<svg width="32" height="32" viewBox="0 0 32 32" fill="none" xmlns="http://www.w3.org/2000/svg">
<path d="M12 30V28C12 27.318 12.2607 26.6353 12.7813 26.1146C13.302 25.594 13.9847 25.3333 14.6667 25.3333H17.3333C18.0153 25.3333 18.6987 25.594 19.2187 26.1146C19.7393 26.6353 20 27.318 20 28V30M7.33334 21.3333C7.33334 22.4333 6.43334 23.3333 5.33334 23.3333C4.23334 23.3333 3.33334 22.4333 3.33334 21.3333V20.6666C3.33334 19.5666 4.23334 18.6666 5.33334 18.6666C6.43334 18.6666 7.33334 19.5666 7.33334 20.6666V21.3333ZM1.33334 30V28C1.33334 27.318 1.59401 26.6353 2.11468 26.1146C2.63534 25.594 3.31801 25.3333 4.00001 25.3333H6.66668C7.34868 25.3333 8.03201 25.594 8.55201 26.1146C9.07268 26.6353 9.33334 27.318 9.33334 28V30H1.33334ZM18 21.3333C18 22.4333 17.1 23.3333 16 23.3333C14.9 23.3333 14 22.4333 14 21.3333V20.6666C14 19.5666 14.9 18.6666 16 18.6666C17.1 18.6666 18 19.5666 18 20.6666V21.3333Z" stroke="#627D98" stroke-width="2" stroke-miterlimit="10" stroke-linejoin="round"/>
<path d="M22.6667 30V28C22.6667 27.318 22.9273 26.6353 23.448 26.1146C23.9687 25.594 24.6513 25.3333 25.3333 25.3333H28C28.682 25.3333 29.3653 25.594 29.8853 26.1146C30.406 26.6353 30.6667 27.318 30.6667 28V30M28.6667 21.3333C28.6667 22.4333 27.7667 23.3333 26.6667 23.3333C25.5667 23.3333 24.6667 22.4333 24.6667 21.3333V20.6666C24.6667 19.5666 25.5667 18.6666 26.6667 18.6666C27.7667 18.6666 28.6667 19.5666 28.6667 20.6666V21.3333Z" stroke="#2CB0ED" stroke-width="2" stroke-miterlimit="10" stroke-linejoin="round"/>
<path d="M29.3333 2H2.66668C1.93334 2 1.33334 2.6 1.33334 3.33333V12.6667C1.33334 13.4 1.93334 14 2.66668 14H3.33334L5.33334 16L7.33334 14H14L16 16L18 14H24.6667L26.6667 16L28.6667 14H29.3333C30.0667 14 30.6667 13.4 30.6667 12.6667V3.33333C30.6667 2.6 30.0667 2 29.3333 2Z" stroke="#627D98" stroke-width="2" stroke-miterlimit="10" stroke-linejoin="round"/>
<path d="M12.6667 8H14" stroke="#FADB61" stroke-width="2" stroke-miterlimit="10" stroke-linejoin="round"/>
<path d="M15.3333 8H16.6667" stroke="#FADB61" stroke-width="2" stroke-miterlimit="10" stroke-linejoin="round"/>
<path d="M18 8H19.3333" stroke="#FADB61" stroke-width="2" stroke-miterlimit="10" stroke-linejoin="round"/>
</svg>
