<svg width="32" height="32" viewBox="0 0 32 32" fill="none" xmlns="http://www.w3.org/2000/svg">
<path d="M16 0C7.17733 0 0 7.17733 0 16C0 24.8227 7.17733 32 16 32C24.8227 32 32 24.8227 32 16C32 7.17733 24.8227 0 16 0Z" fill="#627D98"/>
<path d="M16 1.33331C24.0867 1.33331 30.6667 7.91331 30.6667 16C30.6667 19.2186 29.612 22.1893 27.8467 24.6106C27.6976 24.5127 27.5436 24.4224 27.3853 24.34C24.7133 22.968 20.5693 21.3333 16 21.3333C11.4307 21.3333 7.28668 22.968 4.61334 24.34C4.46001 24.42 4.30668 24.5106 4.15334 24.6106C2.32205 22.1131 1.33427 19.097 1.33334 16C1.33334 7.91331 7.91334 1.33331 16 1.33331Z" fill="#E6E6E6"/>
<path d="M16 30.6667C11.6147 30.6667 7.68399 28.7227 4.99466 25.6627C5.07066 25.616 5.14799 25.5654 5.22399 25.5267C7.76533 24.2214 11.6973 22.6667 16 22.6667C20.3027 22.6667 24.2347 24.2214 26.776 25.5254C26.852 25.5654 26.9293 25.6147 27.0067 25.6627C24.316 28.7227 20.3853 30.6667 16 30.6667Z" fill="#2CB0ED"/>
<path d="M16 20C20.4183 20 24 16.4183 24 12C24 7.58172 20.4183 4 16 4C11.5817 4 8 7.58172 8 12C8 16.4183 11.5817 20 16 20Z" fill="#627D98"/>
<path d="M22.0453 29.3494C23.9398 28.4833 25.6299 27.227 27.0053 25.6627C26.9293 25.6147 26.852 25.5654 26.776 25.5254C24.2347 24.2214 20.3027 22.6667 16 22.6667C15.7947 22.6667 15.5933 22.6867 15.3893 22.6934L22.0453 29.3494Z" fill="url(#paint0_linear_2_355)"/>
<path d="M16 18.6666C19.6819 18.6666 22.6667 15.6819 22.6667 12C22.6667 8.31808 19.6819 5.33331 16 5.33331C12.3181 5.33331 9.33334 8.31808 9.33334 12C9.33334 15.6819 12.3181 18.6666 16 18.6666Z" fill="#2CB0ED"/>
<path opacity="0.1" d="M19.5733 6.39203C19.8347 7.10403 20 7.86403 20 8.6667C20 12.3427 17.0093 15.3334 13.3333 15.3334C12.0654 15.3305 10.8249 14.963 9.76001 14.2747C10.6933 16.8294 13.1267 18.6667 16 18.6667C19.676 18.6667 22.6667 15.676 22.6667 12C22.6645 10.8805 22.3799 9.77962 21.8392 8.79933C21.2985 7.81905 20.5191 6.99105 19.5733 6.39203V6.39203Z" fill="black"/>
<path d="M16 0C7.17733 0 0 7.17733 0 16C0 24.8227 7.17733 32 16 32C24.8227 32 32 24.8227 32 16C32 7.17733 24.8227 0 16 0Z" fill="url(#paint1_linear_2_355)"/>
<defs>
<linearGradient id="paint0_linear_2_355" x1="17.552" y1="20.5307" x2="24.8653" y2="27.8454" gradientUnits="userSpaceOnUse">
<stop stop-opacity="0.1"/>
<stop offset="1" stop-opacity="0"/>
</linearGradient>
<linearGradient id="paint1_linear_2_355" x1="1.5" y1="9.23867" x2="30.5" y2="22.7613" gradientUnits="userSpaceOnUse">
<stop stop-color="white" stop-opacity="0.2"/>
<stop offset="1" stop-color="white" stop-opacity="0"/>
</linearGradient>
</defs>
</svg>
