<svg width="32" height="28" viewBox="0 0 32 28" fill="none" xmlns="http://www.w3.org/2000/svg">
<path d="M30.2496 7H29.9996V5.62C29.9996 4.6975 29.2496 4 28.2496 4H12.7496C12.5507 4 12.36 3.92098 12.2193 3.78033C12.0787 3.63967 11.9996 3.44891 11.9996 3.25V1.75C11.9932 1.28788 11.8067 0.846506 11.4799 0.519708C11.1531 0.19291 10.7118 0.00646033 10.2496 -3.78517e-06H1.74964C1.29209 -0.00535108 0.851055 0.170792 0.523074 0.48987C0.195094 0.808949 0.00688369 1.24497 -0.000358786 1.7025V26C-0.00337412 26.2635 0.0462982 26.5249 0.14574 26.7689C0.245181 27.0129 0.392387 27.2346 0.578708 27.4209C0.765029 27.6073 0.986708 27.7545 1.23072 27.8539C1.47473 27.9533 1.73616 28.003 1.99964 28H30.2496C30.7039 28.0087 31.1431 27.8371 31.4711 27.5227C31.7991 27.2083 31.9891 26.7767 31.9996 26.3225V8.6775C31.9891 8.22327 31.7991 7.79172 31.4711 7.47731C31.1431 7.16291 30.7039 6.99128 30.2496 7ZM0.999641 26V1.7025C1.00681 1.51018 1.08964 1.32848 1.23009 1.19692C1.37055 1.06536 1.55727 0.99459 1.74964 0.999996H10.2496C10.447 1.00506 10.6348 1.0857 10.7744 1.22527C10.9139 1.36484 10.9946 1.55268 10.9996 1.75V3.25C10.9996 3.71413 11.184 4.15924 11.5122 4.48743C11.8404 4.81562 12.2855 5 12.7496 5H28.2496C28.6221 5 28.9996 5.2125 28.9996 5.62V7H4.74964C4.29538 6.99128 3.85617 7.16291 3.52818 7.47731C3.20019 7.79172 3.01014 8.22327 2.99964 8.6775V26C3.00726 26.1333 2.98661 26.2667 2.93905 26.3915C2.89149 26.5163 2.81809 26.6296 2.72367 26.724C2.62925 26.8184 2.51593 26.8918 2.39115 26.9394C2.26638 26.987 2.13296 27.0076 1.99964 27C1.73442 27 1.48007 26.8946 1.29253 26.7071C1.105 26.5196 0.999641 26.2652 0.999641 26ZM9.93214 27C10.058 25.0835 10.908 23.2867 12.3098 21.9739C13.7116 20.6611 15.5603 19.9306 17.4809 19.9306C19.4015 19.9306 21.2501 20.6611 22.652 21.9739C24.0538 23.2867 24.9038 25.0835 25.0296 27H9.93214ZM30.9996 26.3225C30.9893 26.5115 30.9047 26.6888 30.7642 26.8157C30.6237 26.9426 30.4387 27.0089 30.2496 27H26.0321C25.9272 25.2428 25.2845 23.5603 24.1911 22.1806C23.0977 20.801 21.6065 19.791 19.9196 19.2875C20.8762 18.7485 21.6272 17.9077 22.0553 16.8967C22.4833 15.8856 22.5644 14.7612 22.2858 13.6992C22.0071 12.6372 21.3845 11.6974 20.5152 11.0268C19.6459 10.3561 18.5788 9.99235 17.4809 9.99235C16.3829 9.99235 15.3159 10.3561 14.4466 11.0268C13.5773 11.6974 12.9547 12.6372 12.676 13.6992C12.3974 14.7612 12.4784 15.8856 12.9065 16.8967C13.3346 17.9077 14.0856 18.7485 15.0421 19.2875C13.3553 19.791 11.8641 20.801 10.7707 22.1806C9.67728 23.5603 9.03455 25.2428 8.92964 27H3.74964C3.91637 26.6932 4.0024 26.3491 3.99964 26V8.6775C4.00999 8.48846 4.09462 8.31118 4.23511 8.18428C4.37559 8.05738 4.56053 7.99114 4.74964 8H30.2496C30.4387 7.99114 30.6237 8.05738 30.7642 8.18428C30.9047 8.31118 30.9893 8.48846 30.9996 8.6775V26.3225ZM17.4821 18.9325C16.6972 18.933 15.9298 18.7007 15.277 18.2649C14.6241 17.8291 14.1152 17.2095 13.8146 16.4844C13.514 15.7594 13.4352 14.9614 13.5883 14.1916C13.7413 13.4217 14.1192 12.7146 14.6742 12.1596C15.2292 11.6045 15.9364 11.2266 16.7062 11.0736C17.4761 10.9206 18.274 10.9994 18.9991 11.3C19.7242 11.6006 20.3438 12.1095 20.7795 12.7623C21.2153 13.4152 21.4476 14.1826 21.4471 14.9675C21.4452 16.0185 21.0268 17.0258 20.2836 17.769C19.5405 18.5121 18.5331 18.9305 17.4821 18.9325Z" fill="black"/>
</svg>
