<svg width="32" height="32" viewBox="0 0 32 32" fill="none" xmlns="http://www.w3.org/2000/svg">
<path d="M22.0082 4.31673C17.1298 -0.561633 9.1951 -0.561633 4.31673 4.31673C-0.561633 9.1951 -0.561633 17.1298 4.31673 22.0082C6.75265 24.4441 9.95918 25.6653 13.1657 25.6653C15.3208 25.6653 17.4759 25.0971 19.4024 23.9935L25.8024 30.3935C26.4359 31.0269 27.2653 31.3469 28.1012 31.3469C28.9371 31.3469 29.7665 31.0335 30.4 30.3935C31.0073 29.7796 31.3469 28.9633 31.3469 28.0947C31.3469 27.2261 31.0073 26.4098 30.3935 25.7959L23.9935 19.3959C26.7429 14.6155 26.0898 8.39837 22.0082 4.31673ZM30.0408 28.0947C30.0408 28.6106 29.8384 29.1004 29.4727 29.4661C28.7347 30.2041 27.5527 30.2171 26.7886 29.5184L29.5249 26.782C29.8514 27.1478 30.0408 27.6049 30.0408 28.0947ZM28.6041 25.8547L25.8547 28.6041L20.5127 23.262C21.0351 22.8833 21.538 22.4718 22.0082 22.0082C22.4784 21.5445 22.8833 21.0351 23.262 20.5127L28.6041 25.8547ZM21.0808 21.0873C16.7118 25.4563 9.60653 25.4563 5.23755 21.0873C0.868571 16.7184 0.868571 9.61306 5.23755 5.24408C7.41878 3.06286 10.2922 1.96571 13.1592 1.96571C16.0261 1.96571 18.8996 3.05633 21.0808 5.24408C25.4498 9.60653 25.4498 16.7184 21.0808 21.0873Z" fill="black"/>
</svg>
