<svg width="32" height="32" viewBox="0 0 32 32" fill="none" xmlns="http://www.w3.org/2000/svg">
<g clip-path="url(#clip0_2_330)">
<path d="M31.4 14.35C31.3 13.3 30.4 12.5 29.35 12.5C28.1 12.5 27.3 11.5 27.3 10.45C27.3 9.94995 27.5 9.44995 27.9 8.99995C28.65 8.24995 28.7 7.09995 28.05 6.29995C27.7 5.84995 27.3 5.44995 26.9 5.04996C26.45 4.59996 26.05 4.24995 25.55 3.84995C24.8 3.24995 23.65 3.29996 22.95 3.99995L23 4.04996L19 8.04995C20 8.44995 19.85 9.94995 18.75 10.2C18.7 10.2 18.7 10.2 18.65 10.2C15.15 11 12.45 14 12.05 17.55C11.9 18.95 12.1 20.25 12.55 21.45C12.95 22.5 11.7 23.4 10.8 22.7C10.2 22.25 9.65 21.7 9.2 21.05C8.45 20.05 7.05 19.95 6.2 20.85L4.05 23C3.35 23.7 3.25 24.85 3.9 25.65C4.25 26.1 4.65 26.55 5.05 26.95C5.5 27.4 5.9 27.75 6.4 28.15C7.15 28.75 8.3 28.7 9 28L9.05 27.95C10.35 26.65 12.55 27.55 12.55 29.4C12.55 29.95 12.75 30.4 13.1 30.75C13.45 31.1 13.9 31.35 14.4 31.4C15.5 31.5 16.65 31.5 17.75 31.4C18.8 31.3 19.6 30.4 19.6 29.35C19.6 28.1 20.6 27.3 21.65 27.3C22.15 27.3 22.65 27.5 23.1 27.9C23.85 28.65 25 28.7 25.8 28.05C26.25 27.7 26.65 27.3 27.05 26.9C27.5 26.45 27.85 26.05 28.25 25.55C28.85 24.8 28.8 23.65 28.1 22.95L27.95 23C26.65 21.7 27.55 19.5 29.4 19.5C29.95 19.5 30.4 19.3 30.75 18.95C31.1 18.6 31.35 18.15 31.4 17.65C31.55 16.55 31.55 15.45 31.4 14.35Z" fill="#FADB61"/>
<path d="M16 32C15.45 32 14.85 31.95 14.3 31.9C13.65 31.85 13.1 31.55 12.65 31.05C12.25 30.6 12 30 12 29.4C12 28.65 11.5 28.15 11.05 28C10.6 27.8 9.9 27.8 9.35 28.35L9.3 28.4C8.4 29.3 7 29.35 6.05 28.6C5.55 28.2 5.1 27.8 4.7 27.4C4.25 26.95 3.85 26.5 3.5 26.05C2.7 25.05 2.8 23.65 3.7 22.75L5.85 20.6C6.35 20.1 7.05 19.8 7.8 19.85C8.55 19.9 9.2 20.25 9.65 20.85C11.1 22.85 13.45 24 16 24C18.25 24 20.45 23.05 21.95 21.35C23.5 19.65 24.2 17.4 23.95 15.1C23.55 11.45 20.6 8.44998 16.9 8.04998C14.65 7.79998 12.5 8.44998 10.85 9.89998C9.2 11.3 8.15 13.35 8 15.55C8 15.85 7.75 16.05 7.45 16C7.15 16 6.95 15.75 7 15.45C7.15 13 8.3 10.7 10.2 9.09998C12.1 7.49998 14.5 6.79998 17 7.04998C21.15 7.49998 24.5 10.85 24.95 15C25.25 17.6 24.45 20.1 22.7 22.05C21 23.95 18.55 25.05 16 25.05C13.15 25.05 10.5 23.75 8.8 21.45C8.55 21.1 8.1 20.85 7.7 20.85C7.25 20.8 6.85 20.95 6.55 21.3L4.45 23.45C3.9 24 3.85 24.85 4.35 25.45C4.7 25.9 5.05 26.3 5.45 26.7C5.85 27.1 6.3 27.5 6.75 27.85C7.35 28.3 8.15 28.25 8.65 27.75L8.7 27.7C9.45 26.95 10.5 26.75 11.45 27.15C12.4 27.55 13 28.45 13 29.5C13 29.9 13.15 30.25 13.4 30.55C13.65 30.85 14 31 14.4 31.05C15.45 31.15 16.55 31.15 17.6 31.05C18.4 30.95 19 30.3 19 29.5C19 27.9 20.3 26.95 21.55 26.95C22.2 26.95 22.85 27.2 23.35 27.7C23.9 28.25 24.8 28.3 25.4 27.85C25.85 27.5 26.25 27.15 26.6 26.75C27 26.35 27.4 25.9 27.75 25.45C28.2 24.85 28.15 24.05 27.65 23.55L27.6 23.5C26.85 22.75 26.65 21.7 27.05 20.75C27.45 19.8 28.35 19.2 29.4 19.2C29.8 19.2 30.15 19.05 30.45 18.8C30.75 18.55 30.9 18.2 30.95 17.8C31.05 16.75 31.05 15.65 30.95 14.6C30.85 13.8 30.2 13.2 29.4 13.2C27.8 13.2 26.85 11.9 26.85 10.65C26.85 9.99998 27.1 9.34998 27.6 8.84998C28.15 8.29998 28.2 7.39998 27.75 6.79998C27.4 6.39998 27.05 5.94998 26.65 5.59998C26.25 5.19998 25.8 4.79998 25.35 4.44998C24.8 3.99998 23.95 4.04998 23.45 4.54998L23.4 4.59998C22.65 5.34998 21.6 5.54998 20.65 5.14998C19.6 4.54998 19 3.64998 19 2.59998C19 2.19998 18.85 1.84998 18.6 1.54998C18.35 1.24998 18 1.09998 17.6 1.04998C16.55 0.949976 15.45 0.949976 14.4 1.04998C13.6 1.14998 13 1.84998 13 2.59998C13 4.19998 11.7 5.14998 10.45 5.14998C9.8 5.14998 9.15 4.89998 8.65 4.39998C8.1 3.84998 7.2 3.79998 6.6 4.24998C6.15 4.59998 5.75 4.94998 5.4 5.34998C5 5.74998 4.6 6.19998 4.25 6.64998C3.8 7.24998 3.85 8.04998 4.35 8.54998L4.4 8.59998C5.15 9.34998 5.35 10.4 4.95 11.35C4.55 12.4 3.65 13 2.6 13C2.2 13 1.85 13.15 1.55 13.4C1.25 13.65 1.1 14 1.05 14.4C0.95 15.45 0.95 16.55 1.05 17.6C1.15 18.4 1.85 19 2.6 19H3.5C3.8 19 4 19.2 4 19.5C4 19.8 3.8 20 3.5 20H2.6C1.3 20 0.2 19 0.0500004 17.7C-0.0499996 16.55 -0.0499996 15.4 0.0500004 14.25C0.1 13.6 0.4 13.05 0.9 12.6C1.4 12.25 2 12 2.6 12C3.35 12 3.85 11.5 4 11.05C4.2 10.6 4.2 9.89998 3.65 9.34998L3.6 9.29998C2.7 8.39998 2.65 6.99998 3.4 6.04998C3.8 5.54998 4.2 5.09998 4.6 4.69998C5.1 4.24998 5.55 3.89998 6 3.49998C7 2.69998 8.45 2.79998 9.4 3.69998C9.8 4.09998 10.2 4.14998 10.5 4.14998C11.25 4.14998 12.05 3.54998 12.05 2.59998C12.05 1.29998 13.05 0.199976 14.35 0.0499756C15.5 -0.0500244 16.65 -0.0500244 17.8 0.0499756C18.45 0.0999756 19 0.399976 19.45 0.899976C19.75 1.39998 20 1.99998 20 2.59998C20 3.34998 20.5 3.84998 20.95 3.99998C21.4 4.19998 22.1 4.19998 22.65 3.64998L22.7 3.59998C23.6 2.69998 25 2.64998 25.95 3.39998C26.45 3.79998 26.9 4.19998 27.3 4.59998C27.7 4.99998 28.1 5.44998 28.45 5.89998C29.25 6.89998 29.15 8.34998 28.25 9.29998C27.85 9.69998 27.8 10.1 27.8 10.4C27.8 11.15 28.4 11.95 29.35 11.95C30.65 11.95 31.75 12.95 31.9 14.25C32 15.4 32 16.55 31.9 17.7C31.85 18.35 31.55 18.9 31.05 19.35C30.6 19.75 30 20 29.4 20C28.65 20 28.15 20.5 28 20.95C27.8 21.4 27.8 22.1 28.35 22.65L28.4 22.7C29.3 23.6 29.35 25 28.6 25.95C28.2 26.45 27.8 26.9 27.4 27.3C27 27.7 26.55 28.1 26.1 28.45C25.1 29.25 23.65 29.15 22.7 28.25C22.3 27.85 21.9 27.8 21.6 27.8C20.85 27.8 20.05 28.4 20.05 29.35C20.05 30.65 19.05 31.75 17.75 31.9C17.15 31.95 16.55 32 16 32Z" fill="#2CB0ED"/>
</g>
<defs>
<clipPath id="clip0_2_330">
<rect width="32" height="32" fill="white"/>
</clipPath>
</defs>
</svg>
