<svg width="32" height="32" viewBox="0 0 32 32" fill="none" xmlns="http://www.w3.org/2000/svg">
<g clip-path="url(#clip0_2_545)">
<path d="M31.7787 0.198242H0.345612C0.276576 0.198242 0.220612 0.268129 0.220612 0.35434V31.6464C0.220612 31.7326 0.276576 31.8025 0.345612 31.8025H31.7787C31.8478 31.8025 31.9037 31.7326 31.9037 31.6464V0.35434C31.9037 0.268129 31.8478 0.198242 31.7787 0.198242Z" fill="white"/>
<path d="M31.5875 32H0.5375C0.411516 31.9996 0.290795 31.9369 0.201769 31.8255C0.112742 31.7142 0.0626649 31.5634 0.0625 31.406V0.593951C0.0626649 0.436624 0.112742 0.285788 0.201769 0.174467C0.290795 0.063147 0.411516 0.000412798 0.5375 0L31.5875 0C31.7135 0.000412798 31.8342 0.063147 31.9232 0.174467C32.0123 0.285788 32.0623 0.436624 32.0625 0.593951V31.406C32.0623 31.5634 32.0123 31.7142 31.9232 31.8255C31.8342 31.9369 31.7135 31.9996 31.5875 32V32ZM0.691875 0.395707C0.608995 0.395707 0.529509 0.436822 0.470904 0.510007C0.412299 0.583192 0.379375 0.682452 0.379375 0.785951V31.2133C0.379375 31.3168 0.412299 31.416 0.470904 31.4892C0.529509 31.5624 0.608995 31.6035 0.691875 31.6035H31.4331C31.516 31.6035 31.5955 31.5624 31.6541 31.4892C31.7127 31.416 31.7456 31.3168 31.7456 31.2133V0.786732C31.7456 0.683233 31.7127 0.583973 31.6541 0.510788C31.5955 0.437603 31.516 0.396488 31.4331 0.396488L0.691875 0.395707Z" fill="#627D98"/>
<path d="M0.316869 2.97054V0.590048C0.316704 0.563949 0.320668 0.538066 0.328533 0.513885C0.336398 0.489703 0.34801 0.467699 0.362701 0.449135C0.377393 0.430571 0.394875 0.415812 0.414145 0.405706C0.433415 0.3956 0.454094 0.390345 0.474994 0.390244H31.525C31.567 0.39045 31.6072 0.411427 31.6369 0.448583C31.6665 0.485739 31.6831 0.536045 31.6831 0.588487V2.96898L0.316869 2.97054Z" fill="#F0F4F8"/>
<path d="M2.18535 2.1168C2.43388 2.1168 2.63535 1.91532 2.63535 1.6668C2.63535 1.41827 2.43388 1.2168 2.18535 1.2168C1.93682 1.2168 1.73535 1.41827 1.73535 1.6668C1.73535 1.91532 1.93682 2.1168 2.18535 2.1168Z" fill="#FADB61"/>
<path d="M3.92751 2.11678C4.17604 2.11678 4.37751 1.91531 4.37751 1.66678C4.37751 1.41825 4.17604 1.21678 3.92751 1.21678C3.67898 1.21678 3.47751 1.41825 3.47751 1.66678C3.47751 1.91531 3.67898 2.11678 3.92751 2.11678Z" fill="#FADB61"/>
<path d="M5.66973 2.1168C5.91825 2.1168 6.11973 1.91532 6.11973 1.6668C6.11973 1.41827 5.91825 1.2168 5.66973 1.2168C5.4212 1.2168 5.21973 1.41827 5.21973 1.6668C5.21973 1.91532 5.4212 2.1168 5.66973 2.1168Z" fill="#FADB61"/>
<path d="M31.6138 16.5393V16.8936C31.6138 16.935 31.6006 16.9747 31.5772 17.004C31.5537 17.0333 31.5219 17.0497 31.4888 17.0497H0.653126C0.619974 17.0497 0.58818 17.0333 0.564738 17.004C0.541296 16.9747 0.528126 16.935 0.528126 16.8936V16.5393H0.391876V17.6804C0.391876 17.7839 0.4248 17.8831 0.483405 17.9563C0.542011 18.0295 0.621496 18.0706 0.704376 18.0706H31.4375C31.5204 18.0706 31.5999 18.0295 31.6585 17.9563C31.7171 17.8831 31.75 17.7839 31.75 17.6804V16.5393H31.6138Z" fill="#ECEFF1"/>
<path d="M31.4888 3.136H0.653137C0.584102 3.136 0.528137 3.20589 0.528137 3.2921V16.8937C0.528137 16.9799 0.584102 17.0498 0.653137 17.0498H31.4888C31.5578 17.0498 31.6138 16.9799 31.6138 16.8937V3.2921C31.6138 3.20589 31.5578 3.136 31.4888 3.136Z" fill="#2CB0ED"/>
<path d="M31.3413 17.2199H0.800626C0.692219 17.2199 0.588252 17.1661 0.511596 17.0704C0.434941 16.9747 0.391876 16.8449 0.391876 16.7095V2.96585H31.75V16.7095C31.75 16.7765 31.7394 16.8429 31.7189 16.9048C31.6984 16.9667 31.6682 17.023 31.6303 17.0704C31.5923 17.1178 31.5473 17.1554 31.4977 17.1811C31.4481 17.2067 31.3949 17.2199 31.3413 17.2199V17.2199ZM31.4775 3.30615H0.665001V16.7095C0.665001 16.7546 0.679356 16.7979 0.704908 16.8298C0.73046 16.8617 0.765116 16.8796 0.801251 16.8796H31.3413C31.3774 16.8796 31.4121 16.8617 31.4376 16.8298C31.4632 16.7979 31.4775 16.7546 31.4775 16.7095V3.30615Z" fill="#627D98"/>
<path d="M8.62811 8.9959H23.5656V10.0137H8.62811V8.9959ZM10.665 11.0314H21.5287V12.0492H10.665V11.0314Z" fill="#FADB61"/>
<path d="M14.1956 13.4049H18.2694V13.5742H14.1956V13.4049ZM13.3131 13.4049H13.7206V13.5742H13.3131V13.4049ZM18.745 13.4049H19.1525V13.5742H18.745V13.4049ZM8.56 7.47005H8.9675V7.63942H8.56V7.47005ZM23.2262 7.47005H23.6337V7.63942H23.2262V7.47005ZM9.4425 7.47005H22.7506V7.63942H9.4425V7.47005Z" fill="#ECEFF1"/>
<path d="M2.5 24.1982H29.5V24.3965H2.5V24.1982ZM2.5 23.008H29.5V23.2062H2.5V23.008ZM2.5 21.8178H29.5V22.016H2.5V21.8178ZM2.5 20.3348H29.5V20.5331H2.5V20.3348ZM2.5 25.3877H29.5V25.586H2.5V25.3877ZM2.5 26.578H29.5V26.7762H2.5V26.578ZM2.5 27.7682H29.5V27.9664H2.5V27.7682ZM2.5 28.9577H18.5413V29.1559H2.5V28.9577Z" fill="#FADB61"/>
</g>
<defs>
<clipPath id="clip0_2_545">
<rect width="32" height="32" fill="white"/>
</clipPath>
</defs>
</svg>
